<svg id="bf7c011d-c0ba-4855-a397-28bbcba18557" data-name="Layer 1" xmlns="http://www.w3.org/2000/svg" viewBox="0 0 527.53 97.78"><defs><style>.a7009a1d-f227-4107-b845-9e36b1e780a8,.aa815087-1279-44a0-94a1-d434d02ae1eb{fill:#fff;}.aa815087-1279-44a0-94a1-d434d02ae1eb{fill-rule:evenodd;}</style></defs><path class="aa815087-1279-44a0-94a1-d434d02ae1eb" d="M317,33.58l.17,3.68h-.66c0-.75-.12-2.81-4.11-2.81h-3.72V41h3.45a4.24,4.24,0,0,0,1.59-.22,1.8,1.8,0,0,0,.84-.59,1.66,1.66,0,0,0,.29-.84,7.3,7.3,0,0,0,0-.94h.66v6h-.66c0-.4,0-.76-.09-1.09A1.57,1.57,0,0,0,313.53,42a5,5,0,0,0-1.6-.19h-3.25V46.3c0,.76,0,2.84,1.95,2.84h1.47a10.13,10.13,0,0,0,1.63-.12,4.11,4.11,0,0,0,1.4-.45,4.78,4.78,0,0,0,1.16-1,7.27,7.27,0,0,0,1-1.78H318L316.9,50H303.31v-.62c2.29,0,2.29-2.31,2.29-3.07v-9c0-.75,0-3.06-2.28-3.06v-.62Z"/><path class="aa815087-1279-44a0-94a1-d434d02ae1eb" d="M289.28,48.9a3.71,3.71,0,0,0,.5.12l.71.1c.27,0,.52.06.81.07s.56,0,.84,0a6.7,6.7,0,0,0,1.27-.13,8.42,8.42,0,0,0,1.58-.44,9.62,9.62,0,0,0,1.69-.86,6.73,6.73,0,0,0,1.51-1.32,6.88,6.88,0,0,0,1.54-4.55,7.8,7.8,0,0,0-.62-3.15,7,7,0,0,0-1.64-2.37,7.3,7.3,0,0,0-2.51-1.5,9.3,9.3,0,0,0-3.13-.51h-.64l-.71,0c-.24,0-.47,0-.69,0l-.51,0Zm3.4-15.4a14.57,14.57,0,0,1,4.7.68,9.75,9.75,0,0,1,3.3,1.76,7,7,0,0,1,1.93,2.56,7.33,7.33,0,0,1,.63,3A10.76,10.76,0,0,1,303.1,43a7.45,7.45,0,0,1-.53,1.69,8,8,0,0,1-1,1.74,7.45,7.45,0,0,1-1.61,1.55,10.44,10.44,0,0,1-2.2,1.24,11.44,11.44,0,0,1-2.16.61,12.66,12.66,0,0,1-2.21.24c-.74,0-1.48,0-2.24,0h-7.57v-.63c2.65,0,2.6-2.26,2.6-3.11V37.21c0-.75.06-3.08-2.6-3.08V33.5Z"/><path class="aa815087-1279-44a0-94a1-d434d02ae1eb" d="M96.81,34.13V33.5h6.28v.63c-2.56,0-2.56,2.33-2.57,3.1v6c0,1.68.58,7.34-6.85,7.34s-7-5.57-7-7.58V37.22c0-.78,0-3.09-2.59-3.09V33.5H91.8v.63c-2.6,0-2.6,2.31-2.6,3.09v5.72c0,.65-.2,6.53,4.64,6.53,5.56,0,5.53-4.53,5.53-6.29v-6c0-.79,0-3.1-2.56-3.1"/><path class="aa815087-1279-44a0-94a1-d434d02ae1eb" d="M109.34,33.5l12.06,12V37.23c0-.77,0-3.1-2.89-3.1V33.5h6.66v.63c-2.62,0-2.62,2.32-2.62,3.1V50.08h-.65L109,37v9.3c0,.78,0,3.11,3,3.11v.63h-6.81v-.63c2.7,0,2.7-2.33,2.7-3.11V37.23c0-.77,0-3.1-3.4-3.1V33.5Z"/><path class="aa815087-1279-44a0-94a1-d434d02ae1eb" d="M134.76,50.08h-8.22v-.63c2.59,0,2.55-2.33,2.55-3.11V37.23c0-.77,0-3.1-2.55-3.1V33.5h8.22v.63c-2.54,0-2.54,2.33-2.54,3.1l0,9.11c0,.78,0,3.11,2.56,3.11Z"/><path class="aa815087-1279-44a0-94a1-d434d02ae1eb" d="M143.35,33.5v.63c-2.21,0-1.1,2.33-.75,3.08l4.11,8.85,3.58-8.85c.29-.75,1.27-3.08-.7-3.08V33.5h4.95v.63c-1.72,0-2.68,2.33-3,3.08l-5.37,13.31h-.67l-6.13-13.31c-.35-.76-1.45-3.08-3.24-3.08V33.5Z"/><path class="aa815087-1279-44a0-94a1-d434d02ae1eb" d="M169.65,33.5l.18,3.71h-.67c0-.75-.12-2.83-4.15-2.83h-3.76V41h3.48a4.32,4.32,0,0,0,1.61-.23,1.6,1.6,0,0,0,1.15-1.44c0-.31,0-.63,0-1h.66v6.07h-.66c0-.4,0-.76-.09-1.09a1.73,1.73,0,0,0-.37-.81,1.8,1.8,0,0,0-.9-.53,5,5,0,0,0-1.62-.19h-3.28v4.55c0,.78,0,2.87,2,2.87h1.49a9.41,9.41,0,0,0,1.65-.12,3.9,3.9,0,0,0,1.4-.45,4.72,4.72,0,0,0,1.18-1,7.33,7.33,0,0,0,1-1.81h.66l-1.06,4.29H155.83v-.63c2.3,0,2.31-2.33,2.3-3.11V37.21c0-.75,0-3.08-2.3-3.08V33.5Z"/><path class="aa815087-1279-44a0-94a1-d434d02ae1eb" d="M178.17,41.52a5.07,5.07,0,0,0,.7.06l.82,0c.27,0,.58-.09.91-.17a6.93,6.93,0,0,0,1-.36,3,3,0,0,0,.92-.61,3.39,3.39,0,0,0,1-1.68,3.18,3.18,0,0,0,.13-.88,3.87,3.87,0,0,0-.26-1.4,3.31,3.31,0,0,0-.75-1.1,3.45,3.45,0,0,0-1.19-.72,4.4,4.4,0,0,0-1.54-.25c-.34,0-.67,0-1,0l-.78.11Zm8,8.56-6.58-7.7h-1.46v4c0,.78,0,3.11,2.54,3.11v.63h-8.52v-.63c2.84,0,2.87-2.33,2.87-3.11V37.21a2.7,2.7,0,0,0-2.87-3.08V33.5h7.75c.38,0,.81,0,1.27,0s.94.08,1.43.16a9.15,9.15,0,0,1,1.47.39,6.09,6.09,0,0,1,1.42.71,4,4,0,0,1,1.19,1.28,3.2,3.2,0,0,1,.48,1.76A3.59,3.59,0,0,1,187,39.2a3.26,3.26,0,0,1-.63,1,4.17,4.17,0,0,1-.88.75,8,8,0,0,1-1,.5,7.15,7.15,0,0,1-.91.32c-.27.08-.49.13-.65.19l4.6,5.33a10.75,10.75,0,0,0,.79.83,4.76,4.76,0,0,0,.77.62,7.06,7.06,0,0,0,.82.43,7.85,7.85,0,0,0,1,.26v.63Z"/><path class="aa815087-1279-44a0-94a1-d434d02ae1eb" d="M202.43,38.54h-.67a8.14,8.14,0,0,0-.51-1.48,7.07,7.07,0,0,0-1.07-1.63,4.08,4.08,0,0,0-1.43-1.06,4.23,4.23,0,0,0-1.56-.34,2.89,2.89,0,0,0-1,.18,2.72,2.72,0,0,0-.76.47,2,2,0,0,0-.44.68,2.11,2.11,0,0,0-.15.8,2.43,2.43,0,0,0,.31,1.19,3.92,3.92,0,0,0,.89,1,9.36,9.36,0,0,0,1.39,1c.55.32,1.16.67,1.84,1s1.09.64,1.63,1a6.92,6.92,0,0,1,1.41,1.2,5.14,5.14,0,0,1,1,1.44,4,4,0,0,1,.38,1.78,4.45,4.45,0,0,1-.31,1.56,4.21,4.21,0,0,1-1,1.49A4.85,4.85,0,0,1,200.6,50a6.23,6.23,0,0,1-2.52.47,5.59,5.59,0,0,1-1.26-.14c-.39-.09-.74-.19-1.07-.28s-.65-.2-.93-.29a2.49,2.49,0,0,0-.77-.13,1.29,1.29,0,0,0-.55.1,1.13,1.13,0,0,0-.36.2,1.19,1.19,0,0,0-.27.28,2.33,2.33,0,0,1-.17.26h-.61V44.91h.61a7.09,7.09,0,0,0,.72,1.88,5.56,5.56,0,0,0,1,1.27,4.31,4.31,0,0,0,1.05.79,4.68,4.68,0,0,0,1,.39,4.91,4.91,0,0,0,.79.14,3,3,0,0,0,.43,0,5.44,5.44,0,0,0,1.26-.16,3.27,3.27,0,0,0,1.07-.48,2.43,2.43,0,0,0,.75-.81,2.38,2.38,0,0,0,.29-1.19,2.13,2.13,0,0,0-.28-1.06,3.88,3.88,0,0,0-.8-1,7.17,7.17,0,0,0-1.23-1c-.49-.31-1-.65-1.65-1s-1.19-.66-1.77-1a9.63,9.63,0,0,1-1.56-1.14,5.44,5.44,0,0,1-1.12-1.39,3.64,3.64,0,0,1-.44-1.8,4.43,4.43,0,0,1,.32-1.6,4,4,0,0,1,.93-1.37,4.42,4.42,0,0,1,1.53-.95,5.79,5.79,0,0,1,2.12-.34,9.36,9.36,0,0,1,1.27.1c.36.09.69.17,1,.27l.76.25a1.7,1.7,0,0,0,.64.13.93.93,0,0,0,.63-.2,2.38,2.38,0,0,0,.41-.55h.69Z"/><path class="aa815087-1279-44a0-94a1-d434d02ae1eb" d="M221.49,48.9A3.17,3.17,0,0,0,222,49l.71.1c.27,0,.52.06.81.07s.57,0,.84,0a6.63,6.63,0,0,0,1.27-.13,8,8,0,0,0,1.58-.44,9.7,9.7,0,0,0,1.7-.86,7,7,0,0,0,1.51-1.32,7.31,7.31,0,0,0,1.1-1.94,7.4,7.4,0,0,0,.43-2.61,8,8,0,0,0-.61-3.15,6.92,6.92,0,0,0-4.15-3.87,9.4,9.4,0,0,0-3.14-.51h-.63l-.72,0c-.24,0-.47,0-.69,0l-.5,0Zm3.4-15.4a14.57,14.57,0,0,1,4.7.68,10,10,0,0,1,3.3,1.76,7.08,7.08,0,0,1,1.92,2.56,7.17,7.17,0,0,1,.63,3,10.6,10.6,0,0,1-.13,1.47,8.61,8.61,0,0,1-.53,1.69,8,8,0,0,1-1,1.74,7.63,7.63,0,0,1-1.6,1.55,11,11,0,0,1-2.2,1.24,11.54,11.54,0,0,1-2.17.61,12.55,12.55,0,0,1-2.2.24c-.75,0-1.49,0-2.25,0h-7.56v-.63c2.65,0,2.59-2.26,2.59-3.11V37.21c0-.75.07-3.08-2.59-3.08V33.5Z"/><path class="aa815087-1279-44a0-94a1-d434d02ae1eb" d="M240.56,43.92h5.49l-2.82-6.13ZM235,50.08v-.63c1.43,0,2.08-1,3.1-3.11l5.84-13.28h.36l6.11,13.28c1.73,3.11,1.73,3.11,3.35,3.11v.63h-7.43v-.63c.12,0,2.44,0,.84-3.11l-.65-1.41h-6.38l-.62,1.41c-1.39,3.31,1,3.11,1,3.11v.63Z"/><path class="aa815087-1279-44a0-94a1-d434d02ae1eb" d="M213.33,50.08h-8.22v-.63c2.59,0,2.55-2.33,2.55-3.11V37.23c0-.77,0-3.1-2.54-3.1V33.5h8.22v.63c-2.54,0-2.54,2.33-2.54,3.1l0,9.11c0,.78,0,3.11,2.56,3.11Z"/><path class="aa815087-1279-44a0-94a1-d434d02ae1eb" d="M258.78,48.9a3.71,3.71,0,0,0,.5.12l.71.1c.27,0,.52.06.81.07s.56,0,.84,0a6.63,6.63,0,0,0,1.27-.13,8.22,8.22,0,0,0,1.58-.44,9.62,9.62,0,0,0,1.69-.86,6.73,6.73,0,0,0,1.51-1.32,6.88,6.88,0,0,0,1.54-4.55,7.8,7.8,0,0,0-.62-3.15A7,7,0,0,0,267,36.39a7.35,7.35,0,0,0-2.5-1.5,9.4,9.4,0,0,0-3.14-.51h-.63l-.72,0c-.24,0-.47,0-.69,0l-.51,0Zm3.4-15.4a14.68,14.68,0,0,1,4.71.68,9.8,9.8,0,0,1,3.29,1.76,7,7,0,0,1,1.93,2.56,7.33,7.33,0,0,1,.63,3A10.76,10.76,0,0,1,272.6,43a7.45,7.45,0,0,1-.53,1.69,7.6,7.6,0,0,1-1,1.74,7.45,7.45,0,0,1-1.61,1.55,10.44,10.44,0,0,1-2.2,1.24,11.44,11.44,0,0,1-2.16.61,12.66,12.66,0,0,1-2.21.24c-.74,0-1.48,0-2.24,0h-7.56v-.63c2.64,0,2.59-2.26,2.59-3.11V37.21c0-.75.06-3.08-2.59-3.08V33.5Z"/><path class="aa815087-1279-44a0-94a1-d434d02ae1eb" d="M387.65,48.89a3.76,3.76,0,0,0,.49.11l.72.1c.26,0,.52.06.8.07a8,8,0,0,0,.85,0,7.55,7.55,0,0,0,1.26-.13,8.78,8.78,0,0,0,1.58-.44,10.36,10.36,0,0,0,1.69-.86,6.73,6.73,0,0,0,1.51-1.32,7.33,7.33,0,0,0,1.11-1.94,7.58,7.58,0,0,0,.42-2.6,7.73,7.73,0,0,0-.61-3.15,6.93,6.93,0,0,0-1.64-2.38,7.33,7.33,0,0,0-2.5-1.49,9.4,9.4,0,0,0-3.14-.51h-.63l-.71,0c-.24,0-.47,0-.7,0l-.5,0Zm3.4-15.39a14.51,14.51,0,0,1,4.69.68,9.75,9.75,0,0,1,3.3,1.76A6.94,6.94,0,0,1,401,38.49a7.21,7.21,0,0,1,.64,3,10.75,10.75,0,0,1-.14,1.48,8.74,8.74,0,0,1-.53,1.68,7.65,7.65,0,0,1-1,1.74,7.17,7.17,0,0,1-1.6,1.55,10.62,10.62,0,0,1-2.2,1.23,11.48,11.48,0,0,1-2.16.62,13.71,13.71,0,0,1-2.2.24c-.75,0-1.49,0-2.25,0h-7.55v-.62c2.64,0,2.59-2.26,2.59-3.11V37.21c0-.75.06-3.08-2.59-3.08V33.5Z"/><path class="aa815087-1279-44a0-94a1-d434d02ae1eb" d="M357.59,34.13V33.5h6.27v.63c-2.56,0-2.56,2.33-2.57,3.1v5.94c0,1.68.58,7.34-6.85,7.34s-7-5.57-7-7.58V37.21c0-.77,0-3.08-2.59-3.08V33.5h7.71v.63c-2.59,0-2.59,2.31-2.59,3.08v5.72c0,.65-.21,6.53,4.63,6.53,5.56,0,5.53-4.53,5.53-6.29V37.23c0-.79,0-3.1-2.55-3.1"/><path class="aa815087-1279-44a0-94a1-d434d02ae1eb" d="M367.29,43.91h5.49L370,37.79Zm-5.57,6.15v-.62c1.44,0,2.08-1,3.1-3.11l5.84-13.27H371l6.11,13.27c1.73,3.11,1.73,3.11,3.35,3.11v.62H373v-.62c.13,0,2.44,0,.84-3.11l-.64-1.41h-6.38l-.62,1.41c-1.39,3.3,1,3.11,1,3.11v.62Z"/><path class="aa815087-1279-44a0-94a1-d434d02ae1eb" d="M405.77,44h5.48l-2.82-6.12Zm-5.57,6.15v-.62c1.43,0,2.08-1,3.1-3.11l5.83-13.27h.36L415.6,46.4c1.73,3.1,1.73,3.11,3.35,3.11v.62h-7.43v-.62c.13,0,2.44,0,.84-3.11L411.71,45h-6.38l-.61,1.41c-1.4,3.3,1,3.11,1,3.11v.62Z"/><path class="aa815087-1279-44a0-94a1-d434d02ae1eb" d="M442.1,43.91h5.48l-2.82-6.12Zm-5.58,6.15v-.62c1.44,0,2.08-1,3.1-3.11l5.84-13.27h.36l6.1,13.27c1.74,3.11,1.74,3.11,3.35,3.11v.62h-7.42v-.62c.12,0,2.44,0,.84-3.11L448,44.92h-6.38l-.61,1.41c-1.4,3.3,1,3.11,1,3.11v.62Z"/><path class="aa815087-1279-44a0-94a1-d434d02ae1eb" d="M470.54,43.91H476l-2.83-6.12ZM465,50.06v-.62c1.43,0,2.08-1,3.1-3.11l5.84-13.27h.35l6.11,13.27c1.73,3.11,1.73,3.11,3.35,3.11v.62h-7.43v-.62c.13,0,2.44,0,.84-3.11l-.64-1.41H470.1l-.61,1.41c-1.4,3.3,1,3.11,1,3.11v.62Z"/><path class="aa815087-1279-44a0-94a1-d434d02ae1eb" d="M510.25,43.91h5.48l-2.82-6.12Zm-5.58,6.15v-.62c1.44,0,2.08-1,3.1-3.11l5.84-13.27H514l6.1,13.27c1.74,3.11,1.74,3.11,3.35,3.11v.62H516v-.62c.13,0,2.45,0,.85-3.11l-.65-1.41h-6.38l-.61,1.41c-1.4,3.3,1,3.11,1,3.11v.62Z"/><path class="aa815087-1279-44a0-94a1-d434d02ae1eb" d="M490.76,41.52c.22,0,.45,0,.7.06s.52,0,.82,0a7.48,7.48,0,0,0,.91-.17,8.17,8.17,0,0,0,1-.35,3,3,0,0,0,.92-.62,3.46,3.46,0,0,0,.65-.79,3.29,3.29,0,0,0,.37-.89,3.08,3.08,0,0,0,.12-.87,3.82,3.82,0,0,0-.25-1.4,3.31,3.31,0,0,0-.75-1.1,3.6,3.6,0,0,0-1.18-.72,4.5,4.5,0,0,0-1.55-.25c-.34,0-.67,0-1,0l-.78.1Zm8,8.54-6.58-7.69-.42,0h-.65l-.39,0v4c0,.78,0,3.11,2.54,3.11v.62h-8.51v-.62c2.84,0,2.86-2.33,2.86-3.11V37.21a2.7,2.7,0,0,0-2.86-3.08V33.5h7.74c.38,0,.81,0,1.27,0s.94.08,1.43.16a9.43,9.43,0,0,1,1.47.39,6.29,6.29,0,0,1,1.42.71,3.93,3.93,0,0,1,1.18,1.28,3.2,3.2,0,0,1,.49,1.75,3.55,3.55,0,0,1-.24,1.36,3.45,3.45,0,0,1-.64,1A4.11,4.11,0,0,1,498,41a8.81,8.81,0,0,1-1,.5,7.15,7.15,0,0,1-.91.32l-.66.2,4.6,5.32a10.56,10.56,0,0,0,.79.82,4.4,4.4,0,0,0,.78.63,5.64,5.64,0,0,0,.81.42,6.37,6.37,0,0,0,1,.27v.62Z"/><path class="aa815087-1279-44a0-94a1-d434d02ae1eb" d="M429,34.12a2.76,2.76,0,0,0-3.05,3.1v9.06c0,.77.11,2.68,1.3,2.68h3.8c.3,0,.64,0,1-.06a3.61,3.61,0,0,0,1.2-.4,5.15,5.15,0,0,0,1.36-1.06,8.45,8.45,0,0,0,1.34-2h.67l-1.57,4.67H420.24v-.62c2.49,0,2.56-2.39,2.56-3.16V37.22c0-.75-.28-3.1-2.56-3.1V33.5H429Z"/><path class="aa815087-1279-44a0-94a1-d434d02ae1eb" d="M342.33,33.29l.48,5.21h-.5a6.88,6.88,0,0,0-1.79-2.93,5.83,5.83,0,0,0-4-1.41,5.89,5.89,0,0,0-5.15,2.5,8.6,8.6,0,0,0-1.48,5,9.69,9.69,0,0,0,1,4.32,6.72,6.72,0,0,0,2.59,2.86,6.47,6.47,0,0,0,3.25.91,7.46,7.46,0,0,0,1.91-.25,7.28,7.28,0,0,0,1.76-.68V44.05c0-.84,0-2.42-2.33-2.42v-.46h6.86v.46c-1.92,0-2,1.52-2,2.42v5.06a13.18,13.18,0,0,1-3,1.12,13.52,13.52,0,0,1-3.24.35c-3.42,0-6-1-7.79-3.07a7.85,7.85,0,0,1-2-5.31A8.49,8.49,0,0,1,328,38a8.91,8.91,0,0,1,8.26-4.71,9.77,9.77,0,0,1,1.77.14,19.45,19.45,0,0,1,2.23.64,4.38,4.38,0,0,0,1,.27.57.57,0,0,0,.43-.22,1.9,1.9,0,0,0,.21-.83Z"/><path class="aa815087-1279-44a0-94a1-d434d02ae1eb" d="M466.69,34.12c-2.45,0-2.51,2.35-2.51,3v7c0,.37,0,.74-.05,1.1a7.17,7.17,0,0,1-.14,1,3.31,3.31,0,0,1-.3,1,5.33,5.33,0,0,1-.85,1.39,6.15,6.15,0,0,1-1.11,1,4.79,4.79,0,0,1-1.27.61,4.18,4.18,0,0,1-2.23.09,4.4,4.4,0,0,1-1-.31,2.16,2.16,0,0,1-.76-.6,1.22,1.22,0,0,1-.35-.87,1.31,1.31,0,0,1,.12-.5,1.47,1.47,0,0,1,.28-.42,1.19,1.19,0,0,1,.44-.32,1.52,1.52,0,0,1,.62-.11,1.2,1.2,0,0,1,.53.09.92.92,0,0,1,.37.23,1.18,1.18,0,0,1,.3.36l.3.49a1.42,1.42,0,0,0,.55.7.9.9,0,0,0,.39.12.77.77,0,0,0,.6-.24,1.09,1.09,0,0,0,.32-.62,4.85,4.85,0,0,0,.09-.92c0-.34,0-.71,0-1.08V37.19c0-.72,0-3.07-2.84-3.07V33.5h8.44Z"/><path class="aa815087-1279-44a0-94a1-d434d02ae1eb" d="M41.07,13.28v-.76H39.88v.76h-.75v1.19h.75v.77h1.19v-.77h.75V13.28Zm.57,1H40.9v.76h-.85v-.76h-.74v-.82h.74V12.7h.85v.77h.74Zm-8.36-1v-.76H32.09v.76h-.74v1.19h.74v.77h1.19v-.77H34V13.28Zm.57,1h-.74v.76h-.84v-.76h-.75v-.82h.75V12.7h.84v.77h.74ZM41.07,5.7V5H39.88V5.7h-.75V6.89h.75v.77h1.19V6.89h.75V5.7Zm.57,1H40.9v.75h-.85V6.72h-.74V5.88h.74V5.12h.85v.76h.74Zm-8.36-1V5H32.09V5.7h-.74V6.89h.74v.77h1.19V6.89H34V5.7Zm.57,1h-.74v.75h-.84V6.72h-.75V5.88h.75V5.12h.84v.76h.74ZM32.61,32.14l.5-1.18.5,1.18-.5,1.18Zm1.48,0,.64-1.47.63,1.47-.63,1.48Zm6.43,0L40,31l-.51,1.18L40,33.32Zm-1.48,0-.63-1.47-.62,1.47.62,1.48Zm-1.8,0-.72-1.7-.74,1.7.74,1.72ZM52.75,76.27V75h.09c0,.26,0,.32.16.32a3.76,3.76,0,0,0,.55-.17V74.3a2.22,2.22,0,0,0-.54-.17c-.14,0-.16.18-.17.3h-.09v-.76h.09c0,.2.17.25.48.37l2.22.84V75l-2.13.86c-.44.18-.58.23-.57.42Zm1-1.18,1-.38-1-.37Zm1.67-2c0-.21,0-.34-.37-.34H53.24c-.73,0-.89-.44-.89-.84a.58.58,0,0,1,.52-.64.29.29,0,0,1,.32.27.3.3,0,0,1-.31.27c-.16,0-.15-.1-.27-.1s-.11.07-.11.16c0,.27.22.27.34.27h2.25c.27,0,.27-.17.28-.38h.11v1.33Zm-2.62-2.58V69.24h.09c0,.24,0,.32.16.32a3.76,3.76,0,0,0,.55-.17v-.86a2.87,2.87,0,0,0-.54-.19c-.14,0-.16.2-.17.32h-.09v-.78h.09c0,.21.17.27.48.39l2.22.84v.11l-2.13.85c-.44.18-.58.24-.57.41Zm1-1.16,1-.38-1-.37Zm-.86-4.46c0,.22.06.34.29.34h2c.27,0,.27-.17.28-.34h.11v1.19c0,.21,0,1-.65,1-.45,0-.55-.44-.6-.61h0a.77.77,0,0,1-.71.74c-.34,0-.74-.27-.75-1.08V64.86Zm.28,1c-.17,0-.25.07-.25.23,0,.42.36.47.61.47.59,0,.64-.33.66-.58v-.12Zm1.13,0c0,.51.18.6.59.6s.52-.09.52-.4-.11-.2-.21-.2Zm-1.5-1.74V62.83h.09c0,.23,0,.3.16.3a3.76,3.76,0,0,0,.55-.17V62.1a2.22,2.22,0,0,0-.54-.17c-.14,0-.16.18-.17.31h-.09v-.77h.09c0,.19.17.25.48.36l2.22.86v.1l-2.13.85c-.44.19-.58.23-.57.43Zm1-1.18,1-.37-1-.37Zm-1-2.1V60l1.26-.8v-.09h-.8c-.31,0-.33.06-.37.32h-.09V58.15h.09c0,.26.06.34.37.34H55c.36,0,.36-.13.37-.34h.11v1.23c0,.26,0,1.08-.72,1.08a.71.71,0,0,1-.69-.61l-1.14.78a.18.18,0,0,0-.09.16Zm1.39-1.67c0,.48.1.68.61.68s.6-.16.6-.45-.06-.22-.19-.23Zm-1.39-2.29V55.47h.09c0,.26,0,.37.37.37h2.15c0-.28,0-.66-.69-.75V55h.81v2.3h-.81v-.1c.65-.09.67-.48.69-.74H53.21c-.34,0-.34.09-.37.37ZM17.49,54.77a.36.36,0,0,0,.15.26l1.25.73h.76c.34,0,.34-.08.38-.36h.09v1.34H20c0-.27,0-.36-.38-.36h-.6l-1.34.7a.42.42,0,0,0-.22.32h-.12V56.12h.12c0,.25,0,.3.14.3a.51.51,0,0,0,.22-.09l.95-.47L18,55.44a1.38,1.38,0,0,0-.38-.14c-.14,0-.15.14-.17.31h-.12v-.84Zm2.63,4.7v1.24H20c0-.24,0-.29-.16-.29a2.76,2.76,0,0,0-.55.16v.87a4.14,4.14,0,0,0,.52.16c.16,0,.17-.17.19-.32h.09v.78H20c0-.2-.19-.25-.48-.37l-2.22-.84v-.12l2.14-.85c.42-.17.56-.23.56-.42Zm-1,1.18-1,.38,1,.36Zm-1,2.45c-.28.08-.75.31-.75.76a.37.37,0,0,0,.39.41c.21,0,.31-.07.47-.4l.3-.57a.86.86,0,0,1,1.58.54,3,3,0,0,1-.14.66c0,.07.1.09.14.11v.1h-1v-.1c.4-.08.87-.31.87-.78a.46.46,0,0,0-.46-.49c-.26,0-.36.18-.49.44L19,64c-.35.66-.69.66-.87.66a.77.77,0,0,1-.8-.85,2.77,2.77,0,0,1,.14-.61c0-.07-.07-.1-.14-.11V63h.87ZM20,68.19c0-.24-.07-.33-.34-.33H17.77c-.26.21-.28.27-.28.31h-.12v-.8L19.11,66H17.89c-.25,0-.37,0-.4.35h-.12v-.82h.12c0,.27.12.29.32.29h2.38V66L18,67.68h1.61c.3,0,.38-.08.42-.37h.09v.88Zm-2.66,3.17V69.15h.83v.08c-.57.11-.68.37-.68.88,0,.22,0,.3.2.3h.92c0-.38-.08-.57-.59-.63v-.1h1.36v.1c-.5,0-.61.24-.61.63h1c.19,0,.23-.08.23-.34a1,1,0,0,0-.71-1V69l.84.15v2.24H20c0-.23,0-.33-.3-.33h-2c-.25,0-.26.15-.28.33Zm2.75.75v1.33H20c0-.2,0-.35-.3-.35h-2c-.25,0-.26.18-.28.35h-.12V72.11h.12c0,.17,0,.35.28.35h2c.26,0,.27-.14.3-.35ZM20,76.43c0-.2,0-.2-.07-.24s-.08-.11-.31-.11h-1.8c-.33,0-.33.14-.36.35h-.12V75.19c0-.31.08-1,.76-1a.68.68,0,0,1,.6.36,1.71,1.71,0,0,1,.16,1h.76c.32,0,.34-.07.38-.33h.09v1.28Zm-1.27-1c0-.48-.12-.64-.61-.64s-.62.15-.62.45c0,.12,0,.17.13.19ZM40.9,58.22a1.22,1.22,0,0,1-1.19-.66,4.75,4.75,0,0,0,1.19.21A4.45,4.45,0,0,0,42,57.56a1.08,1.08,0,0,1-1.13.66m0,3.68a1.22,1.22,0,0,1-1.19-.66,4.75,4.75,0,0,0,1.19.21A4.45,4.45,0,0,0,42,61.24a1.08,1.08,0,0,1-1.13.66m-1.07,2a1.22,1.22,0,0,1-1.2-.67,4.27,4.27,0,0,0,1.18.23A4.13,4.13,0,0,0,41,63.26a1.07,1.07,0,0,1-1.12.67m-6.22,0a1.24,1.24,0,0,1-1.2-.67,4.48,4.48,0,0,0,1.18.23,3.93,3.93,0,0,0,1.14-.23,1.06,1.06,0,0,1-1.12.67m-2.48-2.69a4.71,4.71,0,0,0,1.16.21,4.49,4.49,0,0,0,1.16-.21,1.06,1.06,0,0,1-1.13.66,1.22,1.22,0,0,1-1.19-.66m-.21-3.68a4.71,4.71,0,0,0,1.16.21,4.27,4.27,0,0,0,1.15-.21,1.06,1.06,0,0,1-1.12.66,1.2,1.2,0,0,1-1.19-.66m3.32,1.65A4.49,4.49,0,0,0,35.4,59a1.08,1.08,0,0,1-1.13.66A1.2,1.2,0,0,1,33.08,59a4.6,4.6,0,0,0,1.16.21m2.27-1.44a4.58,4.58,0,0,0,1.14-.21,1.09,1.09,0,0,1-1.13.66,1.24,1.24,0,0,1-1.2-.66,4.75,4.75,0,0,0,1.19.21m2.38,1.44A4.36,4.36,0,0,0,40,59a1.06,1.06,0,0,1-1.11.66,1.19,1.19,0,0,1-1.2-.66,4.51,4.51,0,0,0,1.17.21m3.94-1.64a3.69,3.69,0,0,0-.67-3.22,3,3,0,0,0-2.56-1,3.65,3.65,0,0,0-3.11-1.75,3.09,3.09,0,0,0-2.88,1.72A3.56,3.56,0,0,0,30.47,55c-.9,1.73-.32,2.54-.32,2.54a3.29,3.29,0,0,0-1,2.76,4.59,4.59,0,0,0,1.56,2.27,2.71,2.71,0,0,0,2.08,2.26,5.2,5.2,0,0,0,2.88-.27v14s-.86,1.72-2.13,1.72c0,0,.2.82,2.13.82,0,0,.26,1.54.88,1.54a1.57,1.57,0,0,0,.9-1.54s1.7-.1,2.08-.77c0,0-2-.59-2-1.82v-14s1,.59,1.22.54,2.94.11,3.42-2.44A3.89,3.89,0,0,0,44,59.7a3.24,3.24,0,0,0-1.12-2.13M24.39,69l1.88-1.39,1.38,1.63L26.47,74a.33.33,0,0,0,.2-.09,3.56,3.56,0,0,1,2-1.49s0-.9,0-1.06a6.28,6.28,0,0,1-.42-1.27,7.76,7.76,0,0,1,.33-1.7,1.27,1.27,0,0,0,.09-.84s1.8-1.06,2.56-.57l.83-.11.44.35s.16.67.05.71-.69-.07-.69.37.44.65.53.13c.19-.07.43.11.43.11l.12.36-.19.52s-.73.13-.77.24a4.64,4.64,0,0,0,0,.65,1,1,0,0,0,1.19,0,29,29,0,0,0,2.58-2.44V69.1l-1,.91-.2,1.16-.84.33-.88.69-1.12,2.23-3.46.73-.34,2.74-1.14.57v.82l1.14.93H25.65v-2l.44-.48-.16-.62-.38-.46.08-.79-.2-1.42,1.3-5.13-.6-.59-.58.27.24,1-.7,1.7-.68-1.33Zm6.42-1.23,0-.41.67.11ZM30,69.85l.47-.65v1.28Zm-.77,1.39.46-.65v1.28Zm0-2.79.46-.65v1.3Zm-.58,1.4.48-.65v1.28Zm.07,5.77,1.57.94L30.48,78l-1.21.52v.82l1.24.91H28.23Zm6.93-5.14v1.21l-1.13,1.25-1,.63-.88.24.86-1.62.9-.39ZM46.94,67.6,48.82,69l0,1.39-.68,1.33-.7-1.7.24-1-.58-.27-.6.59,1.33,5.13-.22,1.42.07.79-.36.46-.18.62.44.48v2H45.37l1.14-.93v-.82l-1.14-.57L45,75.15l-3.47-.73-1.11-2.23-.88-.69-.84-.33L38.54,70l-1-.91V67.87a24.32,24.32,0,0,0,2.52,2.44,1,1,0,0,0,1.19,0,3.48,3.48,0,0,0,0-.65c0-.11-.79-.24-.79-.24l-.16-.52.11-.36s.24-.18.42-.11c.11.52.54.29.54-.13s-.6-.34-.71-.37.08-.71.08-.71l.44-.35L42,67c.79-.49,2.56.57,2.56.57a1.41,1.41,0,0,0,.11.84,7.21,7.21,0,0,1,.33,1.7,6.86,6.86,0,0,1-.44,1.27c0,.16,0,1.06,0,1.06a3.48,3.48,0,0,1,2,1.49.34.34,0,0,0,.21.09l-1.17-4.75Zm-5.27-.14.68-.11,0,.41Zm1,3V69.2l.48.65Zm.79,1.39V70.59l.46.65Zm0-2.77V67.8l.46.65ZM44,70.48l.46-.63L44,69.2Zm.4,5.14L45,80.27h-2.3l1.25-.91v-.82L42.71,78l.13-1.46Zm-6.88-5.17,1.18,1.35.91.39.84,1.62-.87-.24-1-.63-1.08-1.29Zm16.9,13.89-1.18-1.19-1.06,1-1-1L50,84.34l1,1.06-1,1,1.19,1.18,1-1.06,1.06,1.06,1.18-1.18-1.05-1Zm-31.86,0-1.16-1.19-1.07,1-1-1-1.17,1.19L19.2,85.4l-1.05,1,1.17,1.18,1-1.06,1.07,1.06,1.16-1.18-1-1ZM55.71,45.56l-1.18-1.19-1.05,1.06-1-1.06-1.16,1.19,1,1-1,1,1.16,1.2,1-1,1.05,1,1.18-1.2-1-1Zm-33.83,0-1.17-1.19-1.06,1.06-1-1.06-1.17,1.19,1.05,1-1.05,1,1.17,1.2,1-1,1.06,1,1.17-1.2-1.05-1Zm15-18.45a3.85,3.85,0,0,1,3.5,2.58,5.48,5.48,0,0,0-3.5-1.39Zm-.79,0V28.3a5.5,5.5,0,0,0-3.51,1.39,3.88,3.88,0,0,1,3.51-2.58m-4,4v2c1.45,1.47,4.29,1.28,4.4,1.27s2.94.2,4.39-1.27v-2s-1.22-1.32-4.38-1.32h0c-3.18,0-4.4,1.32-4.4,1.32M32.83,35c-.08-.11.09-.22.09-.22a8.33,8.33,0,0,0,3.28,1.18v.63a2.48,2.48,0,0,1-1.08-.12l-.35.63s.27.45,1.74.45h0c1.47,0,1.72-.45,1.72-.45l-.36-.63a2.48,2.48,0,0,1-1.08.12v-.63a8.41,8.41,0,0,0,3.29-1.18s.17.11.1.22A19.7,19.7,0,0,0,39,36.54v1.29a2.91,2.91,0,0,1-2.44,1.05,2.93,2.93,0,0,1-2.44-1.05V36.54A17.58,17.58,0,0,0,32.83,35m16.86,43V50.69H23.48v27.9a4.88,4.88,0,0,0,1,3.24A4.07,4.07,0,0,0,27.6,83h4.95a5.39,5.39,0,0,1,4,1.85,5.86,5.86,0,0,1,4-1.85h4.7c1.79,0,2.78-.38,3.47-1.16,1-1.11,1-2.68,1-3.86m1.16-35.52c-.21.81-1,2.72-4.18,3.84,0,0-1.56.24-2.43.3a4.45,4.45,0,0,0-2.48,1.22c-.54.45-1.6,1.45-1.79,1.61a3.54,3.54,0,0,1-.36.28h11.1v29a5.57,5.57,0,0,1-1.22,3.65A5,5,0,0,1,45.85,84h-5.4c-2.06,0-3.93,2-3.93,2s-1.89-2-3.68-2H27.12a5,5,0,0,1-4.65-5V49.66H33.4a3.25,3.25,0,0,1-.35-.28c-.2-.16-1.25-1.16-1.78-1.61a4.49,4.49,0,0,0-2.48-1.22c-.87-.06-2.44-.3-2.44-.3-3.16-1.12-4-3-4.2-3.84H15.51V83.7a7.58,7.58,0,0,0,1.61,5,5.67,5.67,0,0,0,4.39,1.69h9a9.25,9.25,0,0,1,6,2.61,9.26,9.26,0,0,1,6-2.61h9a5.73,5.73,0,0,0,4.42-1.69,7.75,7.75,0,0,0,1.61-5V42.41Zm1-.84-.35-.18.55-.16-1.17-1a9.85,9.85,0,0,0,1.14,0c-.1,0-1.41-1.42-1.41-1.42s1.52.17,1.41,0-1.38-1.4-1.27-1.32,1.23.2,1.21.09-1.21-1.25-1.21-1.25,1.27.27,1.21.14S50.6,35,50.74,35.08s1.17.31,1.17.31c-.22-.27-.77-1.23-.77-1.23l11,5.51-.76.13L62.59,41,61.31,41l1.25,1.14-1.21,0,1.17,1.19s-1.28-.1-1.21,0,1.36,1.28,1.21,1.26-1.32,0-1.21.08,1.32,1.17,1.14,1.17a11,11,0,0,0-1.21-.07A9.6,9.6,0,0,1,62.15,47l-3.83-2V41.57Zm-28.72,0h.05l10-3.89s.3-.73-.12-1a6.08,6.08,0,0,1-1.69-2.71,1.57,1.57,0,0,1-1.08-1.49A1.49,1.49,0,0,1,31.17,31s1-4.87,5.32-4.9h0c4.34,0,5.32,4.9,5.32,4.9a1.49,1.49,0,0,1,.9,1.47,1.57,1.57,0,0,1-1.08,1.49A6.25,6.25,0,0,1,40,36.65c-.41.3-.14,1-.14,1l10,3.89h0a4.41,4.41,0,0,1-.7-2.08V32.7a2.58,2.58,0,0,1,2.07-2.64c.72-.27,8.8-3,8.8-3-10.6-2.49-23.13-2.27-23.53-2.26S23.56,24.58,13,27.07c0,0,8.08,2.72,8.8,3a2.59,2.59,0,0,1,2.06,2.64v6.79a4.39,4.39,0,0,1-.69,2.08M14.69,45l-3.84,2a12.45,12.45,0,0,1,.92-1.14,11.36,11.36,0,0,0-1.21.07c-.16,0,1-1.11,1.14-1.17s-1.06-.11-1.21-.08,1.15-1.15,1.21-1.26-1.21,0-1.21,0l1.19-1.19-1.23,0L11.7,41,10.43,41l1.21-1.15-.79-.13,11-5.51s-.57,1-.77,1.23c0,0,1-.25,1.18-.31s-1.14,1.23-1.21,1.37,1.21-.14,1.21-.14-1.18,1.16-1.21,1.25,1.12,0,1.21-.09S21.11,38.6,21,38.79s1.42,0,1.42,0S21.11,40.17,21,40.21a9.94,9.94,0,0,0,1.14,0l-1.16,1,.52.16-.32.18h-6.5Zm19.9-29.2V14.13h.7V11.54H32.84v.62H30.41V8.23h2.44v.59h2.44V6.35h-.7V4H38.4V6.35h-.71V8.82h2.46V8.23H42.6v3.93H40.16v-.62H37.71v2.59h.72v1.62c29.62.31,30.51,7.41,30.51,7.41v7.73c0,2.57-.9,2.52-1.89,3-.5.25-8.33,2.76-8.33,2.76V37l3.36,1.62c2,1.1,1.89,2.66,1.89,2.66v7.88a1.86,1.86,0,0,1-1,2L60.67,53l7.46,4.88L63,59.56v5.59L58.33,62.1l0,21.66a8.49,8.49,0,0,1-1.84,5.47,6.45,6.45,0,0,1-5,2h-9c-2.95,0-6,2.78-6,2.78s-3.2-2.78-6-2.78h-9a6.43,6.43,0,0,1-5-2,8.41,8.41,0,0,1-1.83-5.47V62.09L10,65.15V59.56L4.85,57.87,12.32,53S10.84,51.81,10,51.18a1.87,1.87,0,0,1-1-2V41.3a3,3,0,0,1,1.88-2.66L14.27,37v-.35s-7.82-2.51-8.34-2.76c-1-.5-1.87-.45-1.87-3V23.16s.89-7.1,30.53-7.41m32.68,7.64c.21,0-.23-.58-.4-.64s.48-.4.54-.47S63,16.73,36.52,16.73,5.59,22.28,5.59,22.28s.69.4.52.47-.6.68-.4.64.78.23.57.34-.67.78-.57.76.74.17.57.26-.77.84-.64.8.81.12.68.24-.79.9-.64.9,1,0,.73.17S5.53,28,5.68,28s1.08-.17.77.11A2.72,2.72,0,0,0,6,29.17c7.58-5.74,30.2-5.37,30.57-5.36S59.45,23.43,67,29.17a3,3,0,0,0-.49-1.08c-.32-.28.64-.15.76-.11s-.48-.95-.74-1.12.62-.17.74-.17-.51-.74-.64-.9.54-.25.68-.24-.48-.7-.64-.8.48-.3.56-.26-.36-.65-.56-.76.36-.37.56-.34M42.07,11.55h-1.3v-.48H37.24v3.46h.64v1.21H35.12V14.53h.66V11.07H32.25v.48H31V8.89h1.4v.54h3.44V5.9h-.67V4.61h2.76V5.9h-.65V9.43h3.45V8.89h1.39ZM47,45.06a14.68,14.68,0,0,1-3.66.81,5,5,0,0,0-2.94,1.77,5.27,5.27,0,0,1-3.89,2,5.58,5.58,0,0,1-3.91-2,5,5,0,0,0-2.94-1.77A14.91,14.91,0,0,1,26,45.06a6,6,0,0,1-2.75-2.54L32,39.08,28.88,42.5,34.44,39,32.72,44.8l3.17-5.31.62,7.31h0l.61-7.31,3.16,5.31L38.56,39l5.59,3.46L41,39.08l8.77,3.44A5.82,5.82,0,0,1,47,45.06M9.31,22.29l0,.12a.38.38,0,0,0-.22.18.75.75,0,0,0,.08.38l.6,1.65a2.25,2.25,0,0,0,.27.56.45.45,0,0,0,.54.23.54.54,0,0,0,.35-.6,2.42,2.42,0,0,0-.17-.67l-.55-1.51a.83.83,0,0,0-.2-.34.34.34,0,0,0-.29,0l0-.13.7-.25.05.12c-.09.07-.15.13-.16.19a.57.57,0,0,0,.06.32l.58,1.57a2.1,2.1,0,0,1,.16,1,.7.7,0,0,1-.49.57.8.8,0,0,1-.94-.23,2,2,0,0,1-.37-.66l-.6-1.64a.81.81,0,0,0-.18-.33.28.28,0,0,0-.25,0l0-.13Zm2.36,2.76c.12,0,.19-.1.2-.17a.59.59,0,0,0,0-.31l-.68-2.39a3.21,3.21,0,0,0-.27-.25.18.18,0,0,0-.11,0l0-.13.69-.19,1.72,1.78h0l-.42-1.48a.75.75,0,0,0-.17-.35.31.31,0,0,0-.28-.06l0-.13.7-.2,0,.13a.36.36,0,0,0-.18.16.61.61,0,0,0,0,.31l.85,3-.09,0-2.21-2.29h0l.56,2a1,1,0,0,0,.13.32.3.3,0,0,0,.32.09l0,.13-.74.21ZM14,24.41a.48.48,0,0,0,.19-.1.43.43,0,0,0,0-.33l-.59-2.47a.43.43,0,0,0-.17-.28.49.49,0,0,0-.22,0l0-.12,1.16-.28,0,.13a.36.36,0,0,0-.2.1.39.39,0,0,0,0,.33l.59,2.47a.39.39,0,0,0,.15.27.34.34,0,0,0,.25,0l0,.13L14,24.54Zm1.69-3.87,0,.12a.65.65,0,0,0-.22.1s0,.08,0,.16a.31.31,0,0,1,0,.08l0,.07.92,1.79h0L16.51,21v-.12c0-.07,0-.12,0-.16s-.05-.16-.09-.17a.62.62,0,0,0-.25,0l0-.13.71-.14,0,.13a.32.32,0,0,0-.16.14,1.16,1.16,0,0,0-.05.34l-.15,3.17-.09,0-1.48-2.9a1,1,0,0,0-.16-.25.21.21,0,0,0-.19-.06l0-.13Zm2,3.21,0-.13a.37.37,0,0,0,.2-.09.39.39,0,0,0,0-.32l-.41-2.5a.42.42,0,0,0-.15-.29.51.51,0,0,0-.21,0l0-.13L19,19.94l.17,1h-.08a1.48,1.48,0,0,0-.33-.65.68.68,0,0,0-.59-.09c-.1,0-.16,0-.19.08a.33.33,0,0,0,0,.2l.2,1.2a.41.41,0,0,0,.36-.23,1.74,1.74,0,0,0,.05-.63h.09L19,22.62h-.09a1.43,1.43,0,0,0-.25-.6.44.44,0,0,0-.43-.11l.21,1.25a.34.34,0,0,0,.09.21c.05,0,.12,0,.24,0a.76.76,0,0,0,.49-.28,1.55,1.55,0,0,0,.24-.78l.1,0,0,1.1Zm2.2-.49a.36.36,0,0,0,.22-.13.77.77,0,0,0,0-.39l-.31-2.29a.6.6,0,0,0-.13-.38s-.11-.06-.23-.06l0-.13,1.09-.14a1.26,1.26,0,0,1,.56,0,.83.83,0,0,1,.51.74,1,1,0,0,1-.12.69.74.74,0,0,1-.31.28L22,22.86s0,.07.08.08h.08v.12l-.7.1-1-1.52h0l.14,1a.72.72,0,0,0,.11.36.27.27,0,0,0,.25.07l0,.14-1.14.15Zm1.07-2a1,1,0,0,0,.06-.65,1.86,1.86,0,0,0-.12-.47.36.36,0,0,0-.38-.25c-.09,0-.15,0-.17.08a.25.25,0,0,0,0,.18l.18,1.32a.73.73,0,0,0,.45-.21m1.29.57.1,0a2.05,2.05,0,0,0,.35.82.49.49,0,0,0,.44.22.35.35,0,0,0,.31-.21.79.79,0,0,0,.05-.4.69.69,0,0,0-.14-.37,1.28,1.28,0,0,0-.3-.22l-.23-.14a1.78,1.78,0,0,1-.51-.45,1.37,1.37,0,0,1-.2-.59,1.53,1.53,0,0,1,.1-.73.58.58,0,0,1,.5-.39.75.75,0,0,1,.36.05l.21.06a.08.08,0,0,0,.07-.05s0-.08,0-.14h.1l.12,1.13h-.09a2.06,2.06,0,0,0-.31-.65.47.47,0,0,0-.44-.24.31.31,0,0,0-.25.18.67.67,0,0,0-.06.35.6.6,0,0,0,.14.36,2,2,0,0,0,.44.33l.27.16a1.28,1.28,0,0,1,.3.26,1.34,1.34,0,0,1,.27.69,1.56,1.56,0,0,1-.12.77.68.68,0,0,1-.6.42.74.74,0,0,1-.21,0,.83.83,0,0,1-.21-.06l-.07,0-.05,0h0a.07.07,0,0,0-.07.05.52.52,0,0,0,0,.14h-.1Zm1.93.88a.28.28,0,0,0,.28-.4l-.24-2.52a.4.4,0,0,0-.13-.3.39.39,0,0,0-.22,0v-.13L25,19.23v.13a.3.3,0,0,0-.21.08.34.34,0,0,0-.07.31L25,22.28a.44.44,0,0,0,.1.29.37.37,0,0,0,.25.05v.13l-1.18.11Zm1.29-.13a.3.3,0,0,0,.18-.07c.07-.05.09-.15.08-.29l-.2-2.58a.35.35,0,0,0-.12-.27.31.31,0,0,0-.19-.05v-.13l1-.08a1.05,1.05,0,0,1,1,.44A2.73,2.73,0,0,1,27.4,22a1,1,0,0,1-.88.62l-1.07.09Zm.87-.18s.07.07.15.06a.58.58,0,0,0,.47-.37A2.77,2.77,0,0,0,27,20.84a3.83,3.83,0,0,0-.18-.94c-.14-.42-.35-.62-.62-.6-.08,0-.14,0-.16.1a.47.47,0,0,0,0,.22l.2,2.57a.54.54,0,0,0,.06.23m1.59,0q.12,0,.18-.18a3.09,3.09,0,0,0,.12-.45l.58-2.9h.1l.92,2.71a4.32,4.32,0,0,0,.22.58c0,.09.11.13.19.12v.13l-1.1.07v-.14a.52.52,0,0,0,.21-.05s.05-.08.05-.18,0-.1,0-.18,0-.11-.05-.18l-.11-.31-.76,0c0,.21-.06.34-.08.41a2.13,2.13,0,0,0,0,.3.19.19,0,0,0,.11.15.44.44,0,0,0,.18,0v.14l-.7,0Zm1.21-1.17-.4-1.19h0l-.24,1.23Zm1.21,1a.45.45,0,0,0,.18-.07.31.31,0,0,0,.09-.29l-.1-2.58a.35.35,0,0,0-.1-.28.33.33,0,0,0-.19,0v-.14l1,0a1.09,1.09,0,0,1,1,.48,2.66,2.66,0,0,1,.09,2.47,1.06,1.06,0,0,1-.9.59l-1.07,0Zm.87-.15a.14.14,0,0,0,.15.06.57.57,0,0,0,.48-.34A2.85,2.85,0,0,0,32,20.58a4.07,4.07,0,0,0-.14-.95c-.13-.43-.33-.63-.6-.62-.09,0-.15,0-.17.09a.59.59,0,0,0,0,.22l.1,2.58a.61.61,0,0,0,.05.23m2.42,0a.38.38,0,0,0,.18-.06.34.34,0,0,0,.1-.29l0-2.58a.35.35,0,0,0-.1-.28.38.38,0,0,0-.19-.06v-.14h1a1.07,1.07,0,0,1,1,.5,2.3,2.3,0,0,1,.31,1.26,2.22,2.22,0,0,1-.28,1.21,1.06,1.06,0,0,1-.92.57H33.6Zm.87-.13s.07.07.15.07a.56.56,0,0,0,.49-.33,2.93,2.93,0,0,0,.17-1.27,3.7,3.7,0,0,0-.11-.95c-.12-.43-.32-.64-.59-.64a.19.19,0,0,0-.17.09,1,1,0,0,0,0,.22l0,2.58a.45.45,0,0,0,0,.23m1.58.23v-.14a.29.29,0,0,0,.21-.06.38.38,0,0,0,.09-.3V19.22a.39.39,0,0,0-.1-.31.43.43,0,0,0-.2-.06v-.13h2v1.06h-.08a1.36,1.36,0,0,0-.22-.7.71.71,0,0,0-.56-.18c-.11,0-.17,0-.2.05a.3.3,0,0,0,0,.19v1.22a.43.43,0,0,0,.4-.16,1.79,1.79,0,0,0,.16-.62h.08v1.77h-.09a1.54,1.54,0,0,0-.14-.63.45.45,0,0,0-.41-.18v1.27A.3.3,0,0,0,37,22a.29.29,0,0,0,.22.06.76.76,0,0,0,.54-.19,1.69,1.69,0,0,0,.36-.73h.1L38,22.26Zm3.58-3a1,1,0,0,1,.88-.53,1,1,0,0,1,.42.13.71.71,0,0,0,.26.13.14.14,0,0,0,.09-.05.56.56,0,0,0,0-.18h.1l0,1.22h-.09a2.93,2.93,0,0,0-.23-.63c-.15-.29-.33-.44-.53-.44s-.39.14-.5.43a4.11,4.11,0,0,0-.18,1.23A4.65,4.65,0,0,0,40,21.71c.09.35.26.52.53.53a.3.3,0,0,0,.3-.14.62.62,0,0,0,0-.24v-.55c0-.16,0-.26-.09-.31a.47.47,0,0,0-.24-.06v-.13l1.17,0V21a.27.27,0,0,0-.23.1.92.92,0,0,0-.07.37l0,.67a1.13,1.13,0,0,1-.37.2,1.48,1.48,0,0,1-.57.1,1,1,0,0,1-.89-.58,2.81,2.81,0,0,1,.08-2.6m3.45-.37V19a.38.38,0,0,0-.27.08.71.71,0,0,0-.08.38l-.08,1.76a2.66,2.66,0,0,0,0,.61c.07.28.2.42.41.43a.53.53,0,0,0,.55-.43,2.18,2.18,0,0,0,.11-.68l.07-1.6a.77.77,0,0,0,0-.39.35.35,0,0,0-.26-.14v-.13l.74,0V19a.49.49,0,0,0-.22.11.62.62,0,0,0-.07.32l-.07,1.68a2.24,2.24,0,0,1-.25,1,.74.74,0,0,1-.68.33.8.8,0,0,1-.78-.58,2,2,0,0,1-.08-.74l.08-1.75a.77.77,0,0,0,0-.37c0-.06-.1-.1-.22-.12v-.13Zm1.14,3.46a.24.24,0,0,0,.2-.16,3.73,3.73,0,0,0,.17-.43l.93-2.82h.1l.58,2.79a4.19,4.19,0,0,0,.16.61.18.18,0,0,0,.17.14v.13l-1.1-.06v-.14a.54.54,0,0,0,.22,0s.05-.07.06-.16a1.49,1.49,0,0,0,0-.19c0-.05,0-.11,0-.18l-.06-.32-.77-.05-.12.4a1.13,1.13,0,0,0-.06.29.15.15,0,0,0,.09.17.47.47,0,0,0,.17,0v.13l-.69,0Zm1.34-1-.25-1.23h0l-.38,1.2Zm1.09,1.17a.34.34,0,0,0,.19,0,.35.35,0,0,0,.12-.28l.21-2.58a.33.33,0,0,0-.07-.28.34.34,0,0,0-.18-.08v-.13l1,.08a1.09,1.09,0,0,1,.92.59,2.41,2.41,0,0,1,.2,1.29,2.33,2.33,0,0,1-.4,1.17,1.05,1.05,0,0,1-1,.48l-1.07-.09Zm.88,0c0,.05.06.07.14.08a.56.56,0,0,0,.52-.29,2.67,2.67,0,0,0,.3-1.24,3.7,3.7,0,0,0,0-1c-.08-.43-.25-.66-.52-.68a.16.16,0,0,0-.18.07.63.63,0,0,0,0,.21l-.21,2.57a.54.54,0,0,0,0,.24m1.55.24a.25.25,0,0,0,.22-.15,2.47,2.47,0,0,0,.18-.42l1.05-2.77h.09l.47,2.81c.06.32.1.52.13.61s.09.15.17.15l0,.13-1.09-.11V22.8a.88.88,0,0,0,.22,0s.06-.08.07-.17a.53.53,0,0,0,0-.18c0-.06,0-.11,0-.19l0-.32-.76-.08c-.08.2-.12.33-.14.39a1.46,1.46,0,0,0-.08.29.18.18,0,0,0,.08.17.38.38,0,0,0,.17,0v.14l-.69-.08Zm1.39-1-.2-1.24h0l-.43,1.18Zm1.05,1.21a.4.4,0,0,0,.2,0,.42.42,0,0,0,.14-.3l.32-2.52a.36.36,0,0,0-.06-.31.3.3,0,0,0-.19-.09l0-.13,1.18.15,0,.13a.46.46,0,0,0-.29.05.71.71,0,0,0-.11.38l-.32,2.46a.36.36,0,0,0,0,.23.41.41,0,0,0,.22.09.76.76,0,0,0,.54-.14,1.79,1.79,0,0,0,.46-.77l.1,0-.29,1.16-2-.25Zm2.24.29a.25.25,0,0,0,.22-.14,2.78,2.78,0,0,0,.21-.41l1.18-2.72.1,0,.33,2.83a5.23,5.23,0,0,0,.09.62c0,.1.08.15.16.16l0,.13-1.09-.17,0-.13a.45.45,0,0,0,.22,0s.07-.07.08-.16a.58.58,0,0,0,0-.19c0-.05,0-.11,0-.18l0-.33-.75-.12c-.09.2-.14.33-.16.39a1.66,1.66,0,0,0-.09.28.17.17,0,0,0,.07.18.47.47,0,0,0,.17.06l0,.13-.69-.11Zm1.43-.89-.13-1.25h0l-.49,1.15Zm3.14-1.79,0,.13a.38.38,0,0,0-.26.05.71.71,0,0,0-.13.36l-.41,2.23a1.69,1.69,0,0,1-.35.81.63.63,0,0,1-.6.21.48.48,0,0,1-.37-.28.86.86,0,0,1-.07-.47.65.65,0,0,1,.13-.29c.07-.06.13-.09.19-.07a.18.18,0,0,1,.15.13.6.6,0,0,1,0,.27.63.63,0,0,1-.08.23l-.07.12a.16.16,0,0,0,0,.12.15.15,0,0,0,.09.06.21.21,0,0,0,.23-.11,1.51,1.51,0,0,0,.08-.3l.53-2.86a.4.4,0,0,0,0-.33.5.5,0,0,0-.23-.1l0-.13Zm-.52,3.36a.25.25,0,0,0,.23-.13,3.43,3.43,0,0,0,.23-.4l1.35-2.64.09,0,.16,2.85a4.51,4.51,0,0,0,.05.62.19.19,0,0,0,.15.17l0,.13L59,24.28l0-.13a.43.43,0,0,0,.23,0s.06-.06.08-.15a.78.78,0,0,0,0-.19,1.21,1.21,0,0,0,0-.18V23.3l-.75-.17c-.09.2-.15.32-.18.38a1.38,1.38,0,0,0-.11.28.18.18,0,0,0,.06.18.46.46,0,0,0,.17.07l0,.13L57.78,24Zm1.48-.81-.06-1.25h0l-.57,1.12Zm.88,1.32a.26.26,0,0,0,.25,0,.66.66,0,0,0,.16-.35l.62-2.23a.73.73,0,0,0,0-.4c0-.05-.08-.09-.19-.14l0-.13,1.06.29a1.12,1.12,0,0,1,.5.26.8.8,0,0,1,.18.88,1,1,0,0,1-.38.59.73.73,0,0,1-.4.13l.3,1.63c0,.05,0,.08,0,.09a.18.18,0,0,0,.07.05l0,.12L61.72,25l-.33-1.79h0l-.27,1a.81.81,0,0,0,0,.37.29.29,0,0,0,.21.17l0,.13-1.11-.31ZM61.93,23c.12-.06.22-.26.31-.58a1.52,1.52,0,0,0,.07-.47.34.34,0,0,0-.25-.38q-.14,0-.18,0a.27.27,0,0,0-.09.16L61.43,23a.75.75,0,0,0,.5,0m.54,2a.25.25,0,0,0,.24-.09,1.93,1.93,0,0,0,.28-.37l1.68-2.44.09,0L64.55,25a3.74,3.74,0,0,0,0,.63.2.2,0,0,0,.12.18l-.05.12-1-.37,0-.12a.52.52,0,0,0,.22,0s.08-.06.11-.14a1.18,1.18,0,0,0,0-.19A1.41,1.41,0,0,1,64,25l0-.33-.72-.26c-.12.18-.19.3-.23.35a2.56,2.56,0,0,0-.14.26.18.18,0,0,0,0,.19.49.49,0,0,0,.15.09l0,.12-.65-.23Zm1.58-.6.1-1.25h0l-.7,1Z"/><polygon class="aa815087-1279-44a0-94a1-d434d02ae1eb" points="523.42 56.8 93.56 56.8 84.08 56.8 84.08 57.07 306.67 57.07 523.42 57.07 523.42 56.8"/><path class="a7009a1d-f227-4107-b845-9e36b1e780a8" d="M138.44,73.31a2.12,2.12,0,0,1-.61-.54l-3.3-4.07a4.22,4.22,0,0,0,2.07-.86,2.37,2.37,0,0,0,.83-1.94,2.59,2.59,0,0,0-1.85-2.59,6.92,6.92,0,0,0-2.4-.37h-4.63v.46h.07a1.78,1.78,0,0,1,1.1.32,1.63,1.63,0,0,1,.24,1.08v7.12a2.3,2.3,0,0,1-.21,1.26,1.94,1.94,0,0,1-1.13.34h-.07V74h4.73v-.46h-.08a2.32,2.32,0,0,1-1.16-.31,1.63,1.63,0,0,1-.25-1.1V69l.61,0,4.09,5,0,0h2.77v-.46h-.07a1.9,1.9,0,0,1-.77-.22m-6.65-9.09c0-.21,0-.35.12-.4s.23-.09.81-.09a4.07,4.07,0,0,1,1.63.27,1.86,1.86,0,0,1,1.13,1.88,1.91,1.91,0,0,1-1.26,2,8.4,8.4,0,0,1-2.43.36Z"/><path class="a7009a1d-f227-4107-b845-9e36b1e780a8" d="M146,71.2a4.35,4.35,0,0,1-1,1.23,2.27,2.27,0,0,1-1.38.43,2.31,2.31,0,0,1-1.75-.82,4.24,4.24,0,0,1-.82-2.58h5.1v-.08a2.9,2.9,0,0,0-2.92-3.09,3.15,3.15,0,0,0-2.55,1.21,4.38,4.38,0,0,0-1,2.83A4.45,4.45,0,0,0,140.5,73a2.79,2.79,0,0,0,2.4,1.17,3.18,3.18,0,0,0,2.27-.89,4.75,4.75,0,0,0,1.25-1.92l0-.08-.41-.14Zm-4.94-2.42a3.07,3.07,0,0,1,.34-1,1.44,1.44,0,0,1,1.33-.77,1.32,1.32,0,0,1,1.25.66,3,3,0,0,1,.28,1.08Z"/><path class="a7009a1d-f227-4107-b845-9e36b1e780a8" d="M154.62,72.86h-.18c-.42,0-.57-.1-.61-.18a1.34,1.34,0,0,1-.12-.68V65.44c0-.31,0-.63,0-1s0-.57,0-.85l0-1-.13,0h0l-.43.15a5.68,5.68,0,0,1-.62.2l-.73.2-.72.19v.41l.23,0,.19,0h.15c.17,0,.39,0,.45.15a1.31,1.31,0,0,1,.1.63v2.38a2.33,2.33,0,0,0-.5-.36,2.42,2.42,0,0,0-1.11-.26,3.17,3.17,0,0,0-2.55,1.28,4.65,4.65,0,0,0-1,3,3.88,3.88,0,0,0,.87,2.5,2.78,2.78,0,0,0,2.27,1.08,2.59,2.59,0,0,0,1.4-.37,3.76,3.76,0,0,0,.66-.57V74l.11.14,1.32-.5,1.21-.42v-.41h-.09l-.16,0m-2.39-4.18v3.45a1,1,0,0,1-.36.64,1.33,1.33,0,0,1-1,.35,1.86,1.86,0,0,1-1.72-1,4.37,4.37,0,0,1-.58-2.26,4,4,0,0,1,.55-2.17,1.64,1.64,0,0,1,2.54-.44,1.65,1.65,0,0,1,.53,1.41"/><path class="a7009a1d-f227-4107-b845-9e36b1e780a8" d="M166.77,63.4h.07a1.85,1.85,0,0,1,1.17.4,2.74,2.74,0,0,1,.3,1.63v4.28a5.34,5.34,0,0,1-.38,2.3,2.69,2.69,0,0,1-2.63,1.3,2.45,2.45,0,0,1-2.43-1.27,4.62,4.62,0,0,1-.35-2V64.81c0-.72.14-1,.26-1.11a2.23,2.23,0,0,1,1.18-.29H164v-.46h-4.83v.46h.07a2.15,2.15,0,0,1,1.16.3c.17.15.25.52.25,1.1V70a5,5,0,0,0,.54,2.5c.65,1.17,1.9,1.77,3.7,1.77s3.08-.6,3.73-1.8a5.75,5.75,0,0,0,.53-2.7V65.44a2.93,2.93,0,0,1,.28-1.6,1.79,1.79,0,0,1,1.2-.43h.07v-.46h-4Z"/><path class="a7009a1d-f227-4107-b845-9e36b1e780a8" d="M178.21,73.37a1.19,1.19,0,0,1-.21-.79V68.83a2.55,2.55,0,0,0-.9-2.24,1.76,1.76,0,0,0-1-.33,2.5,2.5,0,0,0-1.34.41,7.1,7.1,0,0,0-1,.83v-1a.44.44,0,0,0,0-.13.15.15,0,0,0-.15-.1l-.78.25-1.55.5-.06,0v.43h.09l.19,0h.14a.56.56,0,0,1,.55.26,1.83,1.83,0,0,1,.09.69v4.08c0,.58-.11.8-.2.89a1.37,1.37,0,0,1-.76.26h-.07V74h3.67v-.38h-.07a1.3,1.3,0,0,1-.77-.19.89.89,0,0,1-.23-.71V68.23a7.57,7.57,0,0,1,.67-.58,1.72,1.72,0,0,1,.92-.31.9.9,0,0,1,.87.42,2.26,2.26,0,0,1,.25,1.1V72.3a1.6,1.6,0,0,1-.22,1,1.36,1.36,0,0,1-.77.3h-.07V74H179v-.38h-.07a1,1,0,0,1-.72-.23"/><path class="a7009a1d-f227-4107-b845-9e36b1e780a8" d="M182.46,73.33c-.09-.09-.2-.36-.2-1.09V66.47a.59.59,0,0,0,0-.14l0-.06h-.06a.88.88,0,0,0-.32.1c-.36.16-1,.39-2,.69l-.4.13v.41l.1,0,.48-.13.15,0a.39.39,0,0,1,.43.28,2.24,2.24,0,0,1,.07.7v3.83c0,.75-.1,1-.2,1.09s-.34.21-1,.27h-.08V74h4.07v-.38h-.08c-.61,0-.85-.17-.94-.27"/><path class="a7009a1d-f227-4107-b845-9e36b1e780a8" d="M181.37,64.44a.91.91,0,0,0,.64-1.56.85.85,0,0,0-.64-.27.87.87,0,0,0-.66.28.92.92,0,0,0,0,1.29.89.89,0,0,0,.65.26"/><path class="a7009a1d-f227-4107-b845-9e36b1e780a8" d="M189.23,66.77h.07a2.07,2.07,0,0,1,.46.09.4.4,0,0,1,.25.38,1.58,1.58,0,0,1-.09.42c-.07.2-.13.38-.2.55l-1.36,3.38-1.61-3.86a2.92,2.92,0,0,1-.12-.33.83.83,0,0,1,0-.22c0-.23.09-.27.12-.28a2,2,0,0,1,.57-.13h.07v-.4H184v.39H184a1.14,1.14,0,0,1,.55.18,2.3,2.3,0,0,1,.61.94l2.46,5.88.12.24a.24.24,0,0,0,.21.13.21.21,0,0,0,.18-.09,1.43,1.43,0,0,0,.11-.22L190.59,68a5.27,5.27,0,0,1,.5-1,.64.64,0,0,1,.5-.23h.08v-.4h-2.44Z"/><path class="a7009a1d-f227-4107-b845-9e36b1e780a8" d="M198.55,71.2a4.21,4.21,0,0,1-1.05,1.23,2.22,2.22,0,0,1-1.37.43,2.31,2.31,0,0,1-1.75-.82,4.18,4.18,0,0,1-.82-2.58h5.1v-.08a3,3,0,0,0-.88-2.28,2.91,2.91,0,0,0-2-.81,3.15,3.15,0,0,0-2.55,1.21,4.33,4.33,0,0,0-1,2.83,4.52,4.52,0,0,0,.84,2.68,2.8,2.8,0,0,0,2.4,1.17,3.16,3.16,0,0,0,2.27-.89A4.65,4.65,0,0,0,199,71.37l0-.08-.42-.14Zm-5-2.42a3.34,3.34,0,0,1,.34-1,1.46,1.46,0,0,1,1.34-.77,1.3,1.3,0,0,1,1.24.66,3,3,0,0,1,.29,1.08Z"/><path class="a7009a1d-f227-4107-b845-9e36b1e780a8" d="M203.89,66.26a1.62,1.62,0,0,0-1,.42,6.25,6.25,0,0,0-.87.94V66.54a.92.92,0,0,0,0-.19.14.14,0,0,0-.14-.1h0c-.28.13-.55.24-.82.34s-.33.13-.66.24l-1,.35v.42l.09,0,.28,0,.2,0a.48.48,0,0,1,.47.29,3.19,3.19,0,0,1,.14,1.11v3.62q0,.61-.21.78a2,2,0,0,1-.94.25h-.07V74h4.12v-.43h-.16a1.45,1.45,0,0,1-.94-.24,1.14,1.14,0,0,1-.29-.9V68.81a1.3,1.3,0,0,1,.39-.88c.25-.29.47-.43.63-.43s.19,0,.43.26a.82.82,0,0,0,1.22,0,.95.95,0,0,0-.06-1.28,1,1,0,0,0-.72-.27"/><path class="a7009a1d-f227-4107-b845-9e36b1e780a8" d="M208.81,69.67l-1.06-.57c-.71-.37-1.07-.79-1.07-1.25a1.06,1.06,0,0,1,1.13-1.08,1.5,1.5,0,0,1,1.37.77,3.48,3.48,0,0,1,.42,1.19l0,.06H210L210,66.47v-.08h-.32l0,0a.22.22,0,0,1-.09.1s-.05,0-.16,0a4.25,4.25,0,0,1-.55-.16,3.21,3.21,0,0,0-1-.16,2.39,2.39,0,0,0-1.67.6,2,2,0,0,0-.67,1.53A2,2,0,0,0,206,69.7a5.32,5.32,0,0,0,1.47,1.08l.9.52a1.84,1.84,0,0,1,.68.58,1.09,1.09,0,0,1,.19.61,1,1,0,0,1-.33.8,1.21,1.21,0,0,1-.89.32,1.75,1.75,0,0,1-1.58-.87,4.13,4.13,0,0,1-.48-1.38V71.3h-.41v2.75h.34l0,0a.38.38,0,0,1,.09-.13.16.16,0,0,1,.11-.05,4.45,4.45,0,0,1,.71.16,4.3,4.3,0,0,0,1.11.16,2.88,2.88,0,0,0,1.91-.62,2,2,0,0,0,.73-1.61c0-.85-.59-1.61-1.75-2.24"/><path class="a7009a1d-f227-4107-b845-9e36b1e780a8" d="M213.35,64.44a.91.91,0,0,0,.65-.26.92.92,0,0,0,0-1.3.88.88,0,0,0-.65-.27.86.86,0,0,0-.65.28.9.9,0,0,0-.26.64.89.89,0,0,0,.91.91"/><path class="a7009a1d-f227-4107-b845-9e36b1e780a8" d="M214.44,73.33c-.09-.09-.2-.36-.2-1.09V66.47a.32.32,0,0,0,0-.14v-.06h-.06a.88.88,0,0,0-.32.1c-.37.16-1,.39-2,.69l-.4.13v.41l.11,0,.47-.13.16,0a.39.39,0,0,1,.43.28,2.24,2.24,0,0,1,.07.7v3.83c0,.75-.11,1-.2,1.09s-.35.21-1,.27h-.07V74h4.06v-.38h-.07c-.62,0-.86-.17-.95-.27"/><path class="a7009a1d-f227-4107-b845-9e36b1e780a8" d="M220.05,72.56a2.37,2.37,0,0,1-.47.42.78.78,0,0,1-.46.13.67.67,0,0,1-.68-.5,3.28,3.28,0,0,1-.1-.9l0-4.55H220v-.74h-1.63V64.53c0-.11,0-.16-.05-.19a.29.29,0,0,0-.17,0h0l0,0c-.6.81-1,1.31-1.15,1.5a7,7,0,0,1-.8.74l-.24.21a.35.35,0,0,0-.05.18.21.21,0,0,0,0,.11.27.27,0,0,0,.08.07h.84V72a3.53,3.53,0,0,0,.19,1.3,1.35,1.35,0,0,0,1.36.89,2.07,2.07,0,0,0,.93-.24,2.66,2.66,0,0,0,.92-.82l.22-.3-.33-.27Z"/><path class="a7009a1d-f227-4107-b845-9e36b1e780a8" d="M227.65,73.22v-.61l-.12.09a2.68,2.68,0,0,1-.41.27.68.68,0,0,1-.27,0,.34.34,0,0,1-.36-.26,2.13,2.13,0,0,1-.06-.62V68.92a3.6,3.6,0,0,0-.3-1.65,2.29,2.29,0,0,0-2.19-1.06,3.09,3.09,0,0,0-2.09.64,1.74,1.74,0,0,0-.72,1.23.9.9,0,0,0,.21.58.75.75,0,0,0,.62.27.78.78,0,0,0,.44-.12.74.74,0,0,0,.34-.69c0-.05,0-.14,0-.31a1.7,1.7,0,0,1,0-.31A.58.58,0,0,1,223,67a1.55,1.55,0,0,1,.74-.2,1.09,1.09,0,0,1,1.07.5,2.76,2.76,0,0,1,.15,1.1V69A16.88,16.88,0,0,0,222,70.3h0a2.37,2.37,0,0,0-1.21,2,1.7,1.7,0,0,0,.54,1.29,1.74,1.74,0,0,0,1.25.51,2.8,2.8,0,0,0,1.43-.45A7,7,0,0,0,225,73a1.5,1.5,0,0,0,.27.73,1,1,0,0,0,.85.39,1.75,1.75,0,0,0,1-.32,3.12,3.12,0,0,0,.57-.53Zm-4.12-3a7.21,7.21,0,0,1,1.41-.63V72a.79.79,0,0,1-.45.68,1.85,1.85,0,0,1-1,.29,1.13,1.13,0,0,1-.66-.21,1.16,1.16,0,0,1-.45-1,1.93,1.93,0,0,1,1.12-1.56"/><path class="a7009a1d-f227-4107-b845-9e36b1e780a8" d="M232.22,66.26a1.62,1.62,0,0,0-1.05.42,5.75,5.75,0,0,0-.86.94V66.54a.78.78,0,0,0,0-.19.14.14,0,0,0-.14-.1h0c-.27.13-.55.24-.82.34a6.93,6.93,0,0,1-.66.24l-1,.35v.42l.1,0,.27,0,.2,0a.48.48,0,0,1,.47.29,3.19,3.19,0,0,1,.14,1.11v3.62q0,.61-.21.78a2,2,0,0,1-.94.25h-.07V74h4.12v-.43h-.16a1.45,1.45,0,0,1-.94-.24,1.14,1.14,0,0,1-.29-.9V68.81a1.3,1.3,0,0,1,.39-.88c.25-.29.47-.43.63-.43s.2,0,.43.26a.82.82,0,0,0,1.22,0,.95.95,0,0,0-.06-1.28,1,1,0,0,0-.72-.27"/><path class="a7009a1d-f227-4107-b845-9e36b1e780a8" d="M236.37,73.33c-.09-.09-.2-.36-.2-1.09V66.47a.32.32,0,0,0,0-.14v-.06h-.06a.88.88,0,0,0-.32.1c-.37.16-1,.39-2,.69l-.4.13v.41l.1,0,.48-.13.16,0a.41.41,0,0,1,.43.28,2.24,2.24,0,0,1,.07.7v3.83c0,.75-.11,1-.2,1.09s-.35.21-1,.27h-.07V74h4.06v-.38h-.07c-.62,0-.86-.17-.95-.27"/><path class="a7009a1d-f227-4107-b845-9e36b1e780a8" d="M235.28,64.44a.92.92,0,0,0,.65-1.56.89.89,0,0,0-.65-.27.85.85,0,0,0-.65.28.86.86,0,0,0-.26.64.88.88,0,0,0,.26.65.91.91,0,0,0,.65.26"/><path class="a7009a1d-f227-4107-b845-9e36b1e780a8" d="M244.48,73a.68.68,0,0,1-.27,0,.34.34,0,0,1-.36-.26,2.13,2.13,0,0,1-.06-.62V68.92a3.45,3.45,0,0,0-.31-1.65,2.26,2.26,0,0,0-2.18-1.06,3.07,3.07,0,0,0-2.09.64,1.74,1.74,0,0,0-.72,1.23.9.9,0,0,0,.21.58.73.73,0,0,0,.61.27.84.84,0,0,0,.45-.12.73.73,0,0,0,.33-.69,2.07,2.07,0,0,0,0-.31c0-.15,0-.25,0-.31a.59.59,0,0,1,.33-.53,1.49,1.49,0,0,1,.74-.2,1.07,1.07,0,0,1,1.06.5,2.72,2.72,0,0,1,.16,1.1V69a17.09,17.09,0,0,0-2.92,1.3h0a2.36,2.36,0,0,0-1.2,2,1.73,1.73,0,0,0,.53,1.29,1.74,1.74,0,0,0,1.26.51,2.77,2.77,0,0,0,1.42-.45,5.93,5.93,0,0,0,.94-.69,1.73,1.73,0,0,0,.27.73,1,1,0,0,0,.86.39,1.7,1.7,0,0,0,1-.32,2.83,2.83,0,0,0,.57-.53l0,0v-.61l-.13.09a2.86,2.86,0,0,1-.4.27m-3.59-2.77a6.71,6.71,0,0,1,1.41-.63V72a.79.79,0,0,1-.45.68,1.86,1.86,0,0,1-1,.29,1.07,1.07,0,0,1-.65-.21,1.16,1.16,0,0,1-.45-1,1.93,1.93,0,0,1,1.12-1.56"/><path class="a7009a1d-f227-4107-b845-9e36b1e780a8" d="M255.65,71.2a4.35,4.35,0,0,1-1,1.23,2.27,2.27,0,0,1-1.38.43,2.31,2.31,0,0,1-1.75-.82,4.18,4.18,0,0,1-.82-2.58h5.1v-.08a2.9,2.9,0,0,0-2.92-3.09,3.15,3.15,0,0,0-2.55,1.21,4.38,4.38,0,0,0-1,2.83,4.45,4.45,0,0,0,.84,2.68,2.79,2.79,0,0,0,2.4,1.17,3.2,3.2,0,0,0,2.27-.89,4.75,4.75,0,0,0,1.25-1.92l0-.08-.41-.14Zm-4.94-2.42a3.07,3.07,0,0,1,.34-1,1.44,1.44,0,0,1,1.33-.77,1.32,1.32,0,0,1,1.25.66,3.27,3.27,0,0,1,.28,1.08Z"/><path class="a7009a1d-f227-4107-b845-9e36b1e780a8" d="M260.68,63.4h.07a2.33,2.33,0,0,1,1.26.29,1.55,1.55,0,0,1,.27,1.11v7.32c0,.75-.15,1-.27,1.11a2.74,2.74,0,0,1-1.26.29h-.07V74h5v-.46h-.08a2.78,2.78,0,0,1-1.26-.29c-.12-.09-.26-.36-.26-1.11V64.81a1.55,1.55,0,0,1,.27-1.11,2.26,2.26,0,0,1,1.25-.29h.08v-.46h-5Z"/><path class="a7009a1d-f227-4107-b845-9e36b1e780a8" d="M273.24,73.37a1.19,1.19,0,0,1-.21-.79V68.83a2.58,2.58,0,0,0-.9-2.24,1.78,1.78,0,0,0-1-.33,2.45,2.45,0,0,0-1.34.41,7.64,7.64,0,0,0-1,.83v-1a.49.49,0,0,0,0-.13.15.15,0,0,0-.15-.1l-.78.25-1.55.5-.06,0v.43h.09l.19,0h.13a.57.57,0,0,1,.56.26,1.83,1.83,0,0,1,.09.69v4.08c0,.58-.11.8-.2.89a1.37,1.37,0,0,1-.76.26h-.07V74h3.67v-.38h-.08a1.26,1.26,0,0,1-.76-.19.89.89,0,0,1-.23-.71V68.23a6.36,6.36,0,0,1,.67-.58,1.72,1.72,0,0,1,.92-.31.9.9,0,0,1,.87.42,2.27,2.27,0,0,1,.24,1.1V72.3a1.62,1.62,0,0,1-.21,1,1.36,1.36,0,0,1-.77.3h-.07V74H274v-.38H274a.91.91,0,0,1-.71-.23"/><path class="a7009a1d-f227-4107-b845-9e36b1e780a8" d="M278.25,69.67l-1.06-.57c-.7-.37-1.06-.79-1.06-1.25a1.09,1.09,0,0,1,.3-.76,1.08,1.08,0,0,1,.82-.32,1.53,1.53,0,0,1,1.38.77,4,4,0,0,1,.42,1.19v.06h.4l-.06-2.32v-.08h-.32l0,0a.3.3,0,0,1-.09.1.34.34,0,0,1-.17,0,5,5,0,0,1-.55-.16,3.21,3.21,0,0,0-1-.16,2.39,2.39,0,0,0-1.66.6,1.94,1.94,0,0,0-.67,1.53,2,2,0,0,0,.48,1.33,5.39,5.39,0,0,0,1.48,1.08l.9.52a1.93,1.93,0,0,1,.68.58,1.16,1.16,0,0,1,.18.61,1,1,0,0,1-.32.8,1.24,1.24,0,0,1-.89.32,1.74,1.74,0,0,1-1.58-.87,4.35,4.35,0,0,1-.49-1.38V71.3H275v2.75h.34l0,0a.64.64,0,0,1,.1-.13.16.16,0,0,1,.11-.05,4.25,4.25,0,0,1,.7.16,4.36,4.36,0,0,0,1.11.16,2.87,2.87,0,0,0,1.91-.62,2,2,0,0,0,.74-1.61c0-.85-.59-1.61-1.76-2.24"/><path class="a7009a1d-f227-4107-b845-9e36b1e780a8" d="M284.92,72.56a2.12,2.12,0,0,1-.47.42.75.75,0,0,1-.45.13.66.66,0,0,1-.68-.5,2.87,2.87,0,0,1-.11-.9l0-4.55h1.64v-.74h-1.62V64.53c0-.11,0-.16-.05-.19a.34.34,0,0,0-.18,0h0l0,0c-.6.81-1,1.31-1.15,1.5a6.77,6.77,0,0,1-.79.74,1.88,1.88,0,0,0-.24.21.27.27,0,0,0,0,.18.2.2,0,0,0,0,.11.31.31,0,0,0,.09.07h.83V72a3.53,3.53,0,0,0,.19,1.3,1.35,1.35,0,0,0,1.36.89,2.11,2.11,0,0,0,.94-.24,2.55,2.55,0,0,0,.91-.82l.22-.3-.33-.27Z"/><path class="a7009a1d-f227-4107-b845-9e36b1e780a8" d="M288.46,73.33c-.09-.09-.2-.36-.2-1.09V66.47a.59.59,0,0,0,0-.14v-.06h-.07a1,1,0,0,0-.32.1c-.36.16-1,.39-1.95.69l-.4.13v.41l.1,0,.48-.13.16,0a.41.41,0,0,1,.43.28,2.24,2.24,0,0,1,.07.7v3.83c0,.75-.11,1-.2,1.09a1.88,1.88,0,0,1-1,.27h-.07V74h4.06v-.38h-.07c-.62,0-.86-.17-1-.27"/><path class="a7009a1d-f227-4107-b845-9e36b1e780a8" d="M287.37,64.44a.92.92,0,0,0,.65-1.56.89.89,0,0,0-.65-.27.83.83,0,0,0-.65.28.87.87,0,0,0-.27.64.9.9,0,0,0,.92.91"/><path class="a7009a1d-f227-4107-b845-9e36b1e780a8" d="M294.07,72.56a2.68,2.68,0,0,1-.47.42.78.78,0,0,1-.46.13.67.67,0,0,1-.68-.5,2.93,2.93,0,0,1-.1-.9V67.16H294v-.74h-1.63V64.53c0-.11,0-.16-.05-.19a.32.32,0,0,0-.17,0h0l0,0c-.6.81-1,1.31-1.15,1.5a6.77,6.77,0,0,1-.79.74l-.24.21a.35.35,0,0,0-.05.18.15.15,0,0,0,0,.11.27.27,0,0,0,.08.07h.84V72a3.79,3.79,0,0,0,.18,1.3,1.36,1.36,0,0,0,1.37.89,2.07,2.07,0,0,0,.93-.24,2.55,2.55,0,0,0,.91-.82l.23-.3-.33-.27Z"/><path class="a7009a1d-f227-4107-b845-9e36b1e780a8" d="M301.43,72.82a1,1,0,0,1-.18-.69V66.39H298.5v.42h.07a1.75,1.75,0,0,1,.92.22q.21.16.21.75v4.37a2.93,2.93,0,0,1-.56.52,1.82,1.82,0,0,1-1,.35,1,1,0,0,1-1-.57,2.1,2.1,0,0,1-.15-.84V66.39h-2.55v.38h.07a1.47,1.47,0,0,1,.71.18,1,1,0,0,1,.24.79v4.17a2.08,2.08,0,0,0,.66,1.72,2.14,2.14,0,0,0,1.37.51,2.55,2.55,0,0,0,1.49-.49,5.3,5.3,0,0,0,.87-.82v1.08a.31.31,0,0,0,0,.1.12.12,0,0,0,.13.1h0l.92-.34.69-.22.65-.18h.06V73h-.08c-.4,0-.66,0-.77-.16"/><path class="a7009a1d-f227-4107-b845-9e36b1e780a8" d="M309,71.27a5.09,5.09,0,0,1-.82,1,2.19,2.19,0,0,1-1.44.53,2.11,2.11,0,0,1-1.81-.94,3.56,3.56,0,0,1-.68-2.13,3.28,3.28,0,0,1,.62-2.08,1.83,1.83,0,0,1,1.48-.77A1.23,1.23,0,0,1,307,67a.89.89,0,0,1,.33.56l.1.39a1.24,1.24,0,0,0,.33.6.81.81,0,0,0,.55.21.74.74,0,0,0,.63-.26.79.79,0,0,0,.2-.54,1.51,1.51,0,0,0-.76-1.2,3,3,0,0,0-1.77-.53,3.46,3.46,0,0,0-2.72,1.23,4.29,4.29,0,0,0-1.07,2.91,3.78,3.78,0,0,0,1,2.74,3.12,3.12,0,0,0,2.28,1,3,3,0,0,0,2.3-1.1,6,6,0,0,0,1-1.55l0-.06-.35-.22Z"/><path class="a7009a1d-f227-4107-b845-9e36b1e780a8" d="M313.14,73.33c-.09-.09-.2-.36-.2-1.09V66.47a.59.59,0,0,0,0-.14l0-.06h-.06a.88.88,0,0,0-.32.1c-.36.16-1,.39-1.95.69l-.4.13v.41l.1,0,.48-.13.15,0a.39.39,0,0,1,.43.28,2.24,2.24,0,0,1,.07.7v3.83c0,.75-.11,1-.2,1.09s-.35.21-1,.27h-.07V74h4.07v-.38h-.08c-.62,0-.85-.17-.94-.27"/><path class="a7009a1d-f227-4107-b845-9e36b1e780a8" d="M312,64.44a.91.91,0,0,0,.65-1.56.91.91,0,0,0-1.3,0,.9.9,0,0,0-.26.64.89.89,0,0,0,.91.91"/><path class="a7009a1d-f227-4107-b845-9e36b1e780a8" d="M320.62,64a2,2,0,0,0,.4-.33.72.72,0,0,0,.14-.44.56.56,0,0,0-.2-.45.69.69,0,0,0-.89,0,2.39,2.39,0,0,0-.33.27l-2.42,2.43-.13.14h.88Z"/><path class="a7009a1d-f227-4107-b845-9e36b1e780a8" d="M318.47,66.29a3.48,3.48,0,0,0-2.67,1.13,4,4,0,0,0-1,2.76,4.09,4.09,0,0,0,1.09,2.9,3.56,3.56,0,0,0,2.67,1.16A3.39,3.39,0,0,0,321.2,73a4.25,4.25,0,0,0,1-2.83,3.85,3.85,0,0,0-1.07-2.84,3.64,3.64,0,0,0-2.69-1.07m-1.28,1a1.55,1.55,0,0,1,1.05-.39A1.85,1.85,0,0,1,320,68.12a5.79,5.79,0,0,1,.61,2.58,4.12,4.12,0,0,1-.48,2.13,1.44,1.44,0,0,1-1.32.79,1.93,1.93,0,0,1-1.73-1.19,5.67,5.67,0,0,1-.63-2.63,3.27,3.27,0,0,1,.77-2.47"/><path class="a7009a1d-f227-4107-b845-9e36b1e780a8" d="M329.91,73.37a1.25,1.25,0,0,1-.21-.79V68.83a2.55,2.55,0,0,0-.9-2.24,1.76,1.76,0,0,0-1-.33,2.5,2.5,0,0,0-1.34.41,7.69,7.69,0,0,0-1,.83v-1a.25.25,0,0,0,0-.13.13.13,0,0,0-.14-.1l-.78.25-1.56.5-.05,0v.43h.09l.18,0h.14a.57.57,0,0,1,.56.26,1.83,1.83,0,0,1,.09.69v4.08c0,.58-.11.8-.21.89a1.33,1.33,0,0,1-.75.26h-.07V74h3.67v-.38h-.08a1.24,1.24,0,0,1-.76-.19.89.89,0,0,1-.23-.71V68.23a5.48,5.48,0,0,1,.67-.58,1.71,1.71,0,0,1,.91-.31.89.89,0,0,1,.87.42,2.16,2.16,0,0,1,.25,1.1V72.3a1.62,1.62,0,0,1-.21,1,1.36,1.36,0,0,1-.77.3h-.07V74h3.59v-.38h-.08a1,1,0,0,1-.72-.23"/><path class="a7009a1d-f227-4107-b845-9e36b1e780a8" d="M342.31,68.19a3.39,3.39,0,0,0,1.11-.51,2.15,2.15,0,0,0,.84-1.83,2.36,2.36,0,0,0-1.2-2.26,6.62,6.62,0,0,0-3.17-.65H335.2v.46h.08a2.2,2.2,0,0,1,1.23.29c.18.15.27.53.27,1.11v7.32c0,.72-.15,1-.27,1.11a2.32,2.32,0,0,1-1.23.28h-.08V74h5.44a6.46,6.46,0,0,0,2.35-.38,2.74,2.74,0,0,0,1.83-2.73A2.26,2.26,0,0,0,344,69a4.91,4.91,0,0,0-1.68-.84m-.87-.63a3.49,3.49,0,0,1-1.35.26l-1.48,0V64.2c0-.32.06-.39.09-.41s.16-.08.58-.08a5.31,5.31,0,0,1,2,.28,1.87,1.87,0,0,1,1.15,1.91,1.65,1.65,0,0,1-1,1.66m-2.83,1.07h.7a5.55,5.55,0,0,1,2.51.5,1.85,1.85,0,0,1,.95,1.81,1.92,1.92,0,0,1-.81,1.82,4.2,4.2,0,0,1-2.07.48,2.82,2.82,0,0,1-1.08-.12c-.14-.07-.2-.23-.2-.48Z"/><path class="a7009a1d-f227-4107-b845-9e36b1e780a8" d="M352.55,71.2a4.37,4.37,0,0,1-1.05,1.23,2.25,2.25,0,0,1-1.38.43,2.31,2.31,0,0,1-1.75-.82,4.24,4.24,0,0,1-.82-2.58h5.1v-.08a2.9,2.9,0,0,0-2.91-3.09,3.16,3.16,0,0,0-2.56,1.21,4.38,4.38,0,0,0-1,2.83,4.45,4.45,0,0,0,.84,2.68,2.79,2.79,0,0,0,2.4,1.17,3.18,3.18,0,0,0,2.27-.89A4.65,4.65,0,0,0,353,71.37l0-.08-.41-.14Zm-4.95-2.42a3.07,3.07,0,0,1,.34-1,1.44,1.44,0,0,1,1.33-.77,1.32,1.32,0,0,1,1.25.66,3,3,0,0,1,.28,1.08Z"/><path class="a7009a1d-f227-4107-b845-9e36b1e780a8" d="M360.54,73.37a1.18,1.18,0,0,1-.22-.79V68.83a2.55,2.55,0,0,0-.9-2.24,1.73,1.73,0,0,0-1-.33,2.51,2.51,0,0,0-1.35.41,7.69,7.69,0,0,0-1,.83v-1a.49.49,0,0,0,0-.13.15.15,0,0,0-.15-.1l-.78.25-1.56.5-.05,0v.43h.09l.19,0h.13a.57.57,0,0,1,.56.26,1.83,1.83,0,0,1,.09.69v4.08c0,.58-.11.8-.2.89a1.4,1.4,0,0,1-.76.26h-.07V74h3.67v-.38h-.08a1.24,1.24,0,0,1-.76-.19.89.89,0,0,1-.23-.71V68.23a5.48,5.48,0,0,1,.67-.58,1.71,1.71,0,0,1,.91-.31.89.89,0,0,1,.87.42,2.16,2.16,0,0,1,.25,1.1V72.3a1.62,1.62,0,0,1-.21,1,1.36,1.36,0,0,1-.77.3h-.07V74h3.59v-.38h-.08a.91.91,0,0,1-.71-.23"/><path class="a7009a1d-f227-4107-b845-9e36b1e780a8" d="M368.08,71.2A4.37,4.37,0,0,1,367,72.43a2.25,2.25,0,0,1-1.38.43A2.31,2.31,0,0,1,363.9,72a4.24,4.24,0,0,1-.82-2.58h5.1v-.08a2.9,2.9,0,0,0-2.91-3.09,3.16,3.16,0,0,0-2.56,1.21,4.38,4.38,0,0,0-1,2.83,4.45,4.45,0,0,0,.84,2.68,2.79,2.79,0,0,0,2.4,1.17,3.18,3.18,0,0,0,2.27-.89,4.65,4.65,0,0,0,1.25-1.92l0-.08-.41-.14Zm-4.95-2.42a3.07,3.07,0,0,1,.34-1A1.45,1.45,0,0,1,364.8,67a1.32,1.32,0,0,1,1.25.66,3,3,0,0,1,.28,1.08Z"/><path class="a7009a1d-f227-4107-b845-9e36b1e780a8" d="M380.7,73.37a.89.89,0,0,1-.23-.71V69.32a5.31,5.31,0,0,0-.25-1.91,1.77,1.77,0,0,0-1.8-1.1,2.91,2.91,0,0,0-1.6.51,6.06,6.06,0,0,0-1,.81,2.4,2.4,0,0,0-.4-.73,1.74,1.74,0,0,0-1.38-.59,2.94,2.94,0,0,0-1.22.28,6.31,6.31,0,0,0-1.26.9v-.91a1,1,0,0,0,0-.17.13.13,0,0,0-.13-.1,5.08,5.08,0,0,0-.78.28c-.49.18-.82.31-1,.37l-.63.22v.45l.11,0a.83.83,0,0,1,.18,0l.24,0a.56.56,0,0,1,.46.16,1.2,1.2,0,0,1,.14.73v4.15a1,1,0,0,1-.29.87,2,2,0,0,1-.8.19H369V74h3.81v-.37h-.08a1.29,1.29,0,0,1-.87-.21,1.26,1.26,0,0,1-.19-.79V68.25a3,3,0,0,1,.8-.66,1.86,1.86,0,0,1,.92-.26,1,1,0,0,1,1.05.73,5.75,5.75,0,0,1,.16,1.68V72a2.55,2.55,0,0,1-.19,1.3,1.4,1.4,0,0,1-.92.34h-.07V74h3.84v-.37h-.07c-.47,0-.77-.12-.91-.33a1.7,1.7,0,0,1-.21-.94V68.27a6,6,0,0,1,.69-.61,1.78,1.78,0,0,1,1-.33,1.07,1.07,0,0,1,1.09.61,2.82,2.82,0,0,1,.16,1.12v3.46a1.25,1.25,0,0,1-.2.83,1.5,1.5,0,0,1-.87.26h-.07V74h3.78v-.36h-.07a1.7,1.7,0,0,1-.87-.25"/><path class="a7009a1d-f227-4107-b845-9e36b1e780a8" d="M387.34,64a2,2,0,0,0,.4-.33.65.65,0,0,0,.14-.44.56.56,0,0,0-.2-.45.69.69,0,0,0-.88,0,2,2,0,0,0-.34.27L384,65.51l-.13.14h.88Z"/><path class="a7009a1d-f227-4107-b845-9e36b1e780a8" d="M388.18,71.2a4.21,4.21,0,0,1-1.05,1.23,2.22,2.22,0,0,1-1.37.43A2.31,2.31,0,0,1,384,72a4.18,4.18,0,0,1-.82-2.58h5.1v-.08a3,3,0,0,0-.88-2.28,2.91,2.91,0,0,0-2-.81,3.15,3.15,0,0,0-2.55,1.21,4.33,4.33,0,0,0-1,2.83,4.52,4.52,0,0,0,.84,2.68,2.79,2.79,0,0,0,2.4,1.17,3.16,3.16,0,0,0,2.27-.89,4.78,4.78,0,0,0,1.26-1.92l0-.08-.42-.14Zm-4.95-2.42a3.07,3.07,0,0,1,.35-1,1.43,1.43,0,0,1,1.33-.77,1.3,1.3,0,0,1,1.24.66,3.24,3.24,0,0,1,.29,1.08Z"/><path class="a7009a1d-f227-4107-b845-9e36b1e780a8" d="M393.52,66.26a1.6,1.6,0,0,0-1,.42,6.25,6.25,0,0,0-.87.94V66.54a.92.92,0,0,0,0-.19.14.14,0,0,0-.15-.1h0c-.28.13-.55.24-.82.34-.12.05-.33.13-.66.24l-1,.35v.42l.09,0,.28,0,.2,0a.48.48,0,0,1,.47.29,3.19,3.19,0,0,1,.14,1.11v3.62q0,.61-.21.78a2,2,0,0,1-.94.25h-.07V74H393v-.43h-.16a1.45,1.45,0,0,1-.94-.24,1.14,1.14,0,0,1-.29-.9V68.81a1.3,1.3,0,0,1,.39-.88c.25-.29.47-.43.63-.43s.19,0,.43.26a.82.82,0,0,0,1.22,0,.95.95,0,0,0-.06-1.28,1,1,0,0,0-.72-.27"/><path class="a7009a1d-f227-4107-b845-9e36b1e780a8" d="M396.58,64.44a.92.92,0,0,0,.65-1.56.89.89,0,0,0-.65-.27.83.83,0,0,0-.65.28.87.87,0,0,0-.27.64.9.9,0,0,0,.92.91"/><path class="a7009a1d-f227-4107-b845-9e36b1e780a8" d="M397.67,73.33c-.09-.09-.2-.36-.2-1.09V66.47a.59.59,0,0,0,0-.14v-.06h-.07a.94.94,0,0,0-.32.1c-.36.16-1,.39-1.95.69l-.4.13v.41l.1,0,.48-.13.16,0a.41.41,0,0,1,.43.28,2.6,2.6,0,0,1,.07.7v3.83c0,.75-.11,1-.2,1.09a1.88,1.88,0,0,1-1,.27h-.07V74h4.06v-.38h-.07c-.62,0-.86-.17-.95-.27"/><path class="a7009a1d-f227-4107-b845-9e36b1e780a8" d="M403.28,72.56a2.68,2.68,0,0,1-.47.42.8.8,0,0,1-.46.13.67.67,0,0,1-.68-.5,2.93,2.93,0,0,1-.1-.9V67.16h1.64v-.74H401.6V64.53c0-.11,0-.16-.05-.19a.32.32,0,0,0-.17,0h0l0,0c-.6.81-1,1.31-1.15,1.5a6.77,6.77,0,0,1-.79.74l-.24.21a.35.35,0,0,0-.05.18.15.15,0,0,0,0,.11.27.27,0,0,0,.08.07H400V72a3.76,3.76,0,0,0,.19,1.3,1.35,1.35,0,0,0,1.36.89,2.11,2.11,0,0,0,.94-.24,2.55,2.55,0,0,0,.91-.82l.22-.3-.32-.27Z"/><path class="a7009a1d-f227-4107-b845-9e36b1e780a8" d="M410.35,73a.68.68,0,0,1-.27,0,.34.34,0,0,1-.36-.26,2.13,2.13,0,0,1-.06-.62V68.92a3.45,3.45,0,0,0-.31-1.65,2.26,2.26,0,0,0-2.18-1.06,3.09,3.09,0,0,0-2.09.64,1.74,1.74,0,0,0-.72,1.23.9.9,0,0,0,.21.58.73.73,0,0,0,.61.27.82.82,0,0,0,.45-.12.73.73,0,0,0,.33-.69,2.07,2.07,0,0,0,0-.31c0-.15,0-.25,0-.31a.59.59,0,0,1,.33-.53,1.52,1.52,0,0,1,.74-.2,1.07,1.07,0,0,1,1.06.5,2.72,2.72,0,0,1,.16,1.1V69a17.09,17.09,0,0,0-2.92,1.3h0a2.38,2.38,0,0,0-1.2,2,1.73,1.73,0,0,0,.53,1.29,1.76,1.76,0,0,0,1.26.51,2.8,2.8,0,0,0,1.43-.45,6.42,6.42,0,0,0,.93-.69,1.73,1.73,0,0,0,.27.73,1,1,0,0,0,.86.39,1.7,1.7,0,0,0,1-.32,2.83,2.83,0,0,0,.57-.53l0,0v-.61l-.13.09a2.86,2.86,0,0,1-.4.27m-3.59-2.77a7,7,0,0,1,1.41-.63V72a.79.79,0,0,1-.45.68,1.86,1.86,0,0,1-1,.29,1.12,1.12,0,0,1-.65-.21,1.16,1.16,0,0,1-.45-1,1.93,1.93,0,0,1,1.12-1.56"/><path class="a7009a1d-f227-4107-b845-9e36b1e780a8" d="M422.84,72.86h-.17c-.42,0-.57-.1-.62-.18a1.49,1.49,0,0,1-.11-.68V65.44c0-.31,0-.63,0-1s0-.57,0-.85l0-1-.13,0h0l-.43.15a5.25,5.25,0,0,1-.63.2l-.72.2-.72.19v.41l.22,0,.19,0h.16c.17,0,.38,0,.45.15a1.31,1.31,0,0,1,.1.63v2.38a2.33,2.33,0,0,0-.5-.36,2.46,2.46,0,0,0-1.12-.26,3.19,3.19,0,0,0-2.55,1.28,4.7,4.7,0,0,0-1,3,3.88,3.88,0,0,0,.87,2.5,2.77,2.77,0,0,0,2.27,1.08,2.59,2.59,0,0,0,1.4-.37,3.76,3.76,0,0,0,.66-.57V74l.11.14,1.31-.5,1.22-.42v-.41H423l-.17,0m-2.38-4.18v3.45a1,1,0,0,1-.36.64,1.33,1.33,0,0,1-1,.35,1.86,1.86,0,0,1-1.72-1,4.38,4.38,0,0,1-.59-2.26,4.06,4.06,0,0,1,.55-2.17,1.65,1.65,0,0,1,2.55-.44,1.68,1.68,0,0,1,.53,1.41"/><path class="a7009a1d-f227-4107-b845-9e36b1e780a8" d="M429.75,71.2a4.21,4.21,0,0,1-1.05,1.23,2.22,2.22,0,0,1-1.37.43,2.31,2.31,0,0,1-1.75-.82,4.18,4.18,0,0,1-.82-2.58h5.1v-.08A3,3,0,0,0,429,67.1a2.9,2.9,0,0,0-2-.81,3.15,3.15,0,0,0-2.55,1.21,4.32,4.32,0,0,0-1,2.83,4.51,4.51,0,0,0,.83,2.68,2.8,2.8,0,0,0,2.4,1.17,3.16,3.16,0,0,0,2.27-.89,4.68,4.68,0,0,0,1.26-1.92l0-.08-.41-.14Zm-4.95-2.42a3.07,3.07,0,0,1,.35-1,1.44,1.44,0,0,1,1.33-.77,1.33,1.33,0,0,1,1.25.66,3.27,3.27,0,0,1,.28,1.08Z"/><path class="a7009a1d-f227-4107-b845-9e36b1e780a8" d="M435.88,63.4H436a2.21,2.21,0,0,1,1.18.28,1.57,1.57,0,0,1,.27,1.12v7.44a2.81,2.81,0,0,1-.11.94.37.37,0,0,1-.38.24c-.15,0-.33-.22-.48-.63a1,1,0,0,0-.9-.74.89.89,0,0,0-.57.21.8.8,0,0,0-.28.69,1.09,1.09,0,0,0,.46.85,1.9,1.9,0,0,0,1.25.37,2.76,2.76,0,0,0,2-.82,3.46,3.46,0,0,0,.81-2.51v-6a1.59,1.59,0,0,1,.26-1.08,1.94,1.94,0,0,1,1.2-.32h.07v-.46h-4.88Z"/><path class="a7009a1d-f227-4107-b845-9e36b1e780a8" d="M447.82,73a.7.7,0,0,1-.28,0,.33.33,0,0,1-.35-.26,2.13,2.13,0,0,1-.06-.62V68.92a3.58,3.58,0,0,0-.31-1.65,2.28,2.28,0,0,0-2.18-1.06,3.07,3.07,0,0,0-2.09.64,1.74,1.74,0,0,0-.72,1.23.89.89,0,0,0,.2.58.77.77,0,0,0,.62.27.78.78,0,0,0,.44-.12.72.72,0,0,0,.34-.69,2.07,2.07,0,0,0,0-.31,1.7,1.7,0,0,1,0-.31.59.59,0,0,1,.33-.53,1.49,1.49,0,0,1,.74-.2,1.08,1.08,0,0,1,1.06.5,2.76,2.76,0,0,1,.15,1.1V69a17.26,17.26,0,0,0-2.91,1.3h0a2.36,2.36,0,0,0-1.2,2,1.78,1.78,0,0,0,1.78,1.8,2.8,2.8,0,0,0,1.43-.45,5.93,5.93,0,0,0,.94-.69,1.73,1.73,0,0,0,.27.73,1,1,0,0,0,.86.39,1.72,1.72,0,0,0,1-.32,3.12,3.12,0,0,0,.57-.53l0,0v-.61l-.13.09a3.7,3.7,0,0,1-.4.27m-3.59-2.77a6.85,6.85,0,0,1,1.4-.63V72a.77.77,0,0,1-.45.68,1.83,1.83,0,0,1-1,.29,1.07,1.07,0,0,1-.65-.21,1.16,1.16,0,0,1-.45-1,1.91,1.91,0,0,1,1.12-1.56"/><path class="a7009a1d-f227-4107-b845-9e36b1e780a8" d="M451.58,73.36a1.16,1.16,0,0,1-.21-.84V62.89a1.1,1.1,0,0,0,0-.24.14.14,0,0,0-.14-.1h0c-1,.32-1.88.58-2.6.77l-.06,0v.43l.09,0,.33-.07.24,0a.55.55,0,0,1,.57.29,1.82,1.82,0,0,1,.09.7v7.85a1.06,1.06,0,0,1-.25.83,1.83,1.83,0,0,1-1,.29h-.07V74h4v-.38h-.07a1.82,1.82,0,0,1-.95-.25"/><path class="a7009a1d-f227-4107-b845-9e36b1e780a8" d="M455.06,64.44a.91.91,0,0,0,.65-.26.92.92,0,0,0,0-1.3.88.88,0,0,0-.65-.27.86.86,0,0,0-.65.28.9.9,0,0,0-.26.64.89.89,0,0,0,.91.91"/><path class="a7009a1d-f227-4107-b845-9e36b1e780a8" d="M456.16,73.33c-.1-.09-.2-.36-.2-1.09V66.47a.32.32,0,0,0,0-.14v-.06h-.06a.88.88,0,0,0-.32.1c-.36.16-1,.39-2,.69l-.41.13v.41l.11,0,.48-.13.15,0a.39.39,0,0,1,.43.28,2.24,2.24,0,0,1,.07.7v3.83c0,.75-.11,1-.2,1.09s-.35.21-1,.27h-.07V74h4.07v-.38h-.08c-.62,0-.85-.17-.94-.27"/><path class="a7009a1d-f227-4107-b845-9e36b1e780a8" d="M461.5,69.67l-1.06-.57c-.71-.37-1.07-.79-1.07-1.25a1.06,1.06,0,0,1,1.13-1.08,1.52,1.52,0,0,1,1.37.77,3.7,3.7,0,0,1,.42,1.19v.06h.4l-.06-2.32v-.08h-.32l0,0a.3.3,0,0,1-.09.1.29.29,0,0,1-.16,0,4.25,4.25,0,0,1-.55-.16,3.21,3.21,0,0,0-1-.16,2.39,2.39,0,0,0-1.67.6,1.94,1.94,0,0,0-.67,1.53,2,2,0,0,0,.48,1.33,5.39,5.39,0,0,0,1.48,1.08l.9.52a1.93,1.93,0,0,1,.68.58,1.18,1.18,0,0,1,.19.61,1,1,0,0,1-.33.8,1.21,1.21,0,0,1-.89.32,1.74,1.74,0,0,1-1.58-.87,4.35,4.35,0,0,1-.49-1.38V71.3h-.41v2.75h.35l0,0a.38.38,0,0,1,.09-.13.16.16,0,0,1,.11-.05,4.25,4.25,0,0,1,.7.16,4.43,4.43,0,0,0,1.12.16,2.84,2.84,0,0,0,1.9-.62,2,2,0,0,0,.74-1.61c0-.85-.59-1.61-1.75-2.24"/><path class="a7009a1d-f227-4107-b845-9e36b1e780a8" d="M470.33,71.27a5.47,5.47,0,0,1-.82,1,2.19,2.19,0,0,1-1.44.53,2.11,2.11,0,0,1-1.81-.94,3.56,3.56,0,0,1-.68-2.13,3.34,3.34,0,0,1,.61-2.08,1.86,1.86,0,0,1,1.49-.77,1.23,1.23,0,0,1,.65.15.89.89,0,0,1,.33.56l.1.39a1.24,1.24,0,0,0,.33.6.81.81,0,0,0,.55.21.74.74,0,0,0,.63-.26.79.79,0,0,0,.2-.54,1.51,1.51,0,0,0-.76-1.2,3,3,0,0,0-1.77-.53,3.46,3.46,0,0,0-2.72,1.23,4.3,4.3,0,0,0-1.08,2.91,3.79,3.79,0,0,0,1,2.74,3.1,3.1,0,0,0,2.28,1,3,3,0,0,0,2.3-1.1,6.28,6.28,0,0,0,1-1.55l0-.06-.35-.22Z"/><path class="a7009a1d-f227-4107-b845-9e36b1e780a8" d="M477.89,67.36a3.66,3.66,0,0,0-2.69-1.07,3.52,3.52,0,0,0-2.68,1.13,4,4,0,0,0-1,2.76,4.05,4.05,0,0,0,1.09,2.9,3.53,3.53,0,0,0,2.67,1.16A3.39,3.39,0,0,0,477.93,73a4.25,4.25,0,0,0,1-2.83,3.85,3.85,0,0,0-1.07-2.84m-4,0a1.55,1.55,0,0,1,1.05-.39,1.84,1.84,0,0,1,1.72,1.18,5.66,5.66,0,0,1,.61,2.58,4.13,4.13,0,0,1-.47,2.13,1.44,1.44,0,0,1-1.32.79,1.93,1.93,0,0,1-1.73-1.19,5.68,5.68,0,0,1-.64-2.63,3.23,3.23,0,0,1,.78-2.47"/></svg>